M48
; DRILL file {KiCad 9.0.0} date 2025-03-20T17:17:07+0100
; FORMAT={-:-/ absolute / metric / decimal}
; #@! TF.CreationDate,2025-03-20T17:17:07+01:00
; #@! TF.GenerationSoftware,Kicad,Pcbnew,9.0.0
; #@! TF.FileFunction,Plated,1,2,PTH
FMAT,2
METRIC
; #@! TA.AperFunction,Plated,PTH,ViaDrill
T1C0.300
; #@! TA.AperFunction,Plated,PTH,ComponentDrill
T2C0.850
%
G90
G05
T1
X50.0Y-55.5
X73.0Y-43.5
X108.5Y-35.0
X108.5Y-63.0
T2
X29.5Y-28.0
X29.5Y-68.0
X31.0Y-35.0
X31.0Y-61.0
X39.0Y-35.0
X39.0Y-61.0
X44.5Y-28.0
X44.5Y-68.0
X49.0Y-35.0
X49.0Y-61.0
X49.0Y-78.0
X49.0Y-104.0
X50.0Y-40.5
X50.0Y-55.5
X55.5Y-124.0
X55.5Y-139.0
X83.5Y-46.0
X83.5Y-50.0
X87.0Y-40.5
X87.0Y-55.5
X120.5Y-46.0
X120.5Y-50.0
X122.0Y-30.5
X122.0Y-36.5
X122.0Y-59.5
X122.0Y-66.0
X122.0Y-78.0
X122.0Y-104.0
X125.5Y-34.0
X125.5Y-43.0
X128.5Y-118.5
X128.5Y-144.5
X131.0Y-28.0
X131.0Y-68.0
X131.0Y-71.0
X136.5Y-144.0
X141.5Y-30.5
X141.5Y-36.5
X141.5Y-59.5
X141.5Y-66.0
X149.5Y-36.5
X149.5Y-59.5
X151.5Y-144.0
X157.0Y-28.0
X157.0Y-68.0
X157.0Y-71.0
X162.5Y-53.0
X162.5Y-62.0
M30
