%TF.GenerationSoftware,KiCad,Pcbnew,9.0.0*%
%TF.CreationDate,2025-03-20T17:17:02+01:00*%
%TF.ProjectId,DMW-BLJ31-charger,444d572d-424c-44a3-9331-2d6368617267,rev?*%
%TF.SameCoordinates,Original*%
%TF.FileFunction,Legend,Top*%
%TF.FilePolarity,Positive*%
%FSLAX46Y46*%
G04 Gerber Fmt 4.6, Leading zero omitted, Abs format (unit mm)*
G04 Created by KiCad (PCBNEW 9.0.0) date 2025-03-20 17:17:02*
%MOMM*%
%LPD*%
G01*
G04 APERTURE LIST*
%ADD10C,0.200000*%
%ADD11C,0.850000*%
%ADD12C,0.100000*%
%ADD13C,0.150000*%
G04 APERTURE END LIST*
D10*
X139500000Y-27500000D02*
X139500000Y-68500000D01*
D11*
X39425000Y-67000000D02*
G75*
G02*
X38575000Y-67000000I-425000J0D01*
G01*
X38575000Y-67000000D02*
G75*
G02*
X39425000Y-67000000I425000J0D01*
G01*
D10*
X85500000Y-39000000D02*
X122500000Y-39000000D01*
X122500000Y-57000000D01*
X85500000Y-57000000D01*
X85500000Y-39000000D01*
X40500000Y-27500000D02*
X40500000Y-68500000D01*
X41500000Y-27500000D02*
X41500000Y-68500000D01*
D12*
X30250000Y-30250000D02*
X31750000Y-30250000D01*
X31750000Y-31750000D01*
X30250000Y-31750000D01*
X30250000Y-30250000D01*
G36*
X30250000Y-30250000D02*
G01*
X31750000Y-30250000D01*
X31750000Y-31750000D01*
X30250000Y-31750000D01*
X30250000Y-30250000D01*
G37*
D10*
X147500000Y-27500000D02*
X148500000Y-27500000D01*
D12*
X151500000Y-30000000D02*
X149500000Y-30000000D01*
X150500000Y-28500000D01*
X151500000Y-30000000D01*
G36*
X151500000Y-30000000D02*
G01*
X149500000Y-30000000D01*
X150500000Y-28500000D01*
X151500000Y-30000000D01*
G37*
D10*
X32500000Y-27500000D02*
X32500000Y-68500000D01*
X33500000Y-27500000D02*
X33500000Y-68500000D01*
D11*
X49925000Y-67500000D02*
G75*
G02*
X49075000Y-67500000I-425000J0D01*
G01*
X49075000Y-67500000D02*
G75*
G02*
X49925000Y-67500000I425000J0D01*
G01*
D10*
X48500000Y-39000000D02*
X85500000Y-39000000D01*
X85500000Y-57000000D01*
X48500000Y-57000000D01*
X48500000Y-39000000D01*
X148500000Y-68500000D02*
X147500000Y-68500000D01*
X148500000Y-27500000D02*
X148500000Y-68500000D01*
X140500000Y-27500000D02*
X140500000Y-68500000D01*
X139500000Y-27500000D02*
X140500000Y-27500000D01*
X41500000Y-68500000D02*
X40500000Y-68500000D01*
X40500000Y-27500000D02*
X41500000Y-27500000D01*
X33500000Y-68500000D02*
X32500000Y-68500000D01*
X32500000Y-27500000D02*
X33500000Y-27500000D01*
X147500000Y-27500000D02*
X147500000Y-68500000D01*
X140500000Y-68500000D02*
X139500000Y-68500000D01*
X86971643Y-59174182D02*
X86114500Y-59174182D01*
X86543071Y-59174182D02*
X86543071Y-57674182D01*
X86543071Y-57674182D02*
X86400214Y-57888468D01*
X86400214Y-57888468D02*
X86257357Y-58031325D01*
X86257357Y-58031325D02*
X86114500Y-58102754D01*
X87543071Y-58745611D02*
X88257357Y-58745611D01*
X87400214Y-59174182D02*
X87900214Y-57674182D01*
X87900214Y-57674182D02*
X88400214Y-59174182D01*
X90685928Y-59102754D02*
X90543070Y-59174182D01*
X90543070Y-59174182D02*
X90257356Y-59174182D01*
X90257356Y-59174182D02*
X90114499Y-59102754D01*
X90114499Y-59102754D02*
X90043070Y-59031325D01*
X90043070Y-59031325D02*
X89971642Y-58888468D01*
X89971642Y-58888468D02*
X89971642Y-58459896D01*
X89971642Y-58459896D02*
X90043070Y-58317039D01*
X90043070Y-58317039D02*
X90114499Y-58245611D01*
X90114499Y-58245611D02*
X90257356Y-58174182D01*
X90257356Y-58174182D02*
X90543070Y-58174182D01*
X90543070Y-58174182D02*
X90685928Y-58245611D01*
X91328784Y-59174182D02*
X91328784Y-57674182D01*
X91971642Y-59174182D02*
X91971642Y-58388468D01*
X91971642Y-58388468D02*
X91900213Y-58245611D01*
X91900213Y-58245611D02*
X91757356Y-58174182D01*
X91757356Y-58174182D02*
X91543070Y-58174182D01*
X91543070Y-58174182D02*
X91400213Y-58245611D01*
X91400213Y-58245611D02*
X91328784Y-58317039D01*
X93328785Y-59174182D02*
X93328785Y-58388468D01*
X93328785Y-58388468D02*
X93257356Y-58245611D01*
X93257356Y-58245611D02*
X93114499Y-58174182D01*
X93114499Y-58174182D02*
X92828785Y-58174182D01*
X92828785Y-58174182D02*
X92685927Y-58245611D01*
X93328785Y-59102754D02*
X93185927Y-59174182D01*
X93185927Y-59174182D02*
X92828785Y-59174182D01*
X92828785Y-59174182D02*
X92685927Y-59102754D01*
X92685927Y-59102754D02*
X92614499Y-58959896D01*
X92614499Y-58959896D02*
X92614499Y-58817039D01*
X92614499Y-58817039D02*
X92685927Y-58674182D01*
X92685927Y-58674182D02*
X92828785Y-58602754D01*
X92828785Y-58602754D02*
X93185927Y-58602754D01*
X93185927Y-58602754D02*
X93328785Y-58531325D01*
X94043070Y-59174182D02*
X94043070Y-58174182D01*
X94043070Y-58459896D02*
X94114499Y-58317039D01*
X94114499Y-58317039D02*
X94185928Y-58245611D01*
X94185928Y-58245611D02*
X94328785Y-58174182D01*
X94328785Y-58174182D02*
X94471642Y-58174182D01*
X95614499Y-58174182D02*
X95614499Y-59388468D01*
X95614499Y-59388468D02*
X95543070Y-59531325D01*
X95543070Y-59531325D02*
X95471641Y-59602754D01*
X95471641Y-59602754D02*
X95328784Y-59674182D01*
X95328784Y-59674182D02*
X95114499Y-59674182D01*
X95114499Y-59674182D02*
X94971641Y-59602754D01*
X95614499Y-59102754D02*
X95471641Y-59174182D01*
X95471641Y-59174182D02*
X95185927Y-59174182D01*
X95185927Y-59174182D02*
X95043070Y-59102754D01*
X95043070Y-59102754D02*
X94971641Y-59031325D01*
X94971641Y-59031325D02*
X94900213Y-58888468D01*
X94900213Y-58888468D02*
X94900213Y-58459896D01*
X94900213Y-58459896D02*
X94971641Y-58317039D01*
X94971641Y-58317039D02*
X95043070Y-58245611D01*
X95043070Y-58245611D02*
X95185927Y-58174182D01*
X95185927Y-58174182D02*
X95471641Y-58174182D01*
X95471641Y-58174182D02*
X95614499Y-58245611D01*
X96900213Y-59102754D02*
X96757356Y-59174182D01*
X96757356Y-59174182D02*
X96471642Y-59174182D01*
X96471642Y-59174182D02*
X96328784Y-59102754D01*
X96328784Y-59102754D02*
X96257356Y-58959896D01*
X96257356Y-58959896D02*
X96257356Y-58388468D01*
X96257356Y-58388468D02*
X96328784Y-58245611D01*
X96328784Y-58245611D02*
X96471642Y-58174182D01*
X96471642Y-58174182D02*
X96757356Y-58174182D01*
X96757356Y-58174182D02*
X96900213Y-58245611D01*
X96900213Y-58245611D02*
X96971642Y-58388468D01*
X96971642Y-58388468D02*
X96971642Y-58531325D01*
X96971642Y-58531325D02*
X96257356Y-58674182D01*
X97614498Y-59174182D02*
X97614498Y-58174182D01*
X97614498Y-58459896D02*
X97685927Y-58317039D01*
X97685927Y-58317039D02*
X97757356Y-58245611D01*
X97757356Y-58245611D02*
X97900213Y-58174182D01*
X97900213Y-58174182D02*
X98043070Y-58174182D01*
X99685926Y-59174182D02*
X99685926Y-58174182D01*
X99685926Y-58317039D02*
X99757355Y-58245611D01*
X99757355Y-58245611D02*
X99900212Y-58174182D01*
X99900212Y-58174182D02*
X100114498Y-58174182D01*
X100114498Y-58174182D02*
X100257355Y-58245611D01*
X100257355Y-58245611D02*
X100328784Y-58388468D01*
X100328784Y-58388468D02*
X100328784Y-59174182D01*
X100328784Y-58388468D02*
X100400212Y-58245611D01*
X100400212Y-58245611D02*
X100543069Y-58174182D01*
X100543069Y-58174182D02*
X100757355Y-58174182D01*
X100757355Y-58174182D02*
X100900212Y-58245611D01*
X100900212Y-58245611D02*
X100971641Y-58388468D01*
X100971641Y-58388468D02*
X100971641Y-59174182D01*
X101900212Y-59174182D02*
X101757355Y-59102754D01*
X101757355Y-59102754D02*
X101685926Y-59031325D01*
X101685926Y-59031325D02*
X101614498Y-58888468D01*
X101614498Y-58888468D02*
X101614498Y-58459896D01*
X101614498Y-58459896D02*
X101685926Y-58317039D01*
X101685926Y-58317039D02*
X101757355Y-58245611D01*
X101757355Y-58245611D02*
X101900212Y-58174182D01*
X101900212Y-58174182D02*
X102114498Y-58174182D01*
X102114498Y-58174182D02*
X102257355Y-58245611D01*
X102257355Y-58245611D02*
X102328784Y-58317039D01*
X102328784Y-58317039D02*
X102400212Y-58459896D01*
X102400212Y-58459896D02*
X102400212Y-58888468D01*
X102400212Y-58888468D02*
X102328784Y-59031325D01*
X102328784Y-59031325D02*
X102257355Y-59102754D01*
X102257355Y-59102754D02*
X102114498Y-59174182D01*
X102114498Y-59174182D02*
X101900212Y-59174182D01*
X103685927Y-59174182D02*
X103685927Y-57674182D01*
X103685927Y-59102754D02*
X103543069Y-59174182D01*
X103543069Y-59174182D02*
X103257355Y-59174182D01*
X103257355Y-59174182D02*
X103114498Y-59102754D01*
X103114498Y-59102754D02*
X103043069Y-59031325D01*
X103043069Y-59031325D02*
X102971641Y-58888468D01*
X102971641Y-58888468D02*
X102971641Y-58459896D01*
X102971641Y-58459896D02*
X103043069Y-58317039D01*
X103043069Y-58317039D02*
X103114498Y-58245611D01*
X103114498Y-58245611D02*
X103257355Y-58174182D01*
X103257355Y-58174182D02*
X103543069Y-58174182D01*
X103543069Y-58174182D02*
X103685927Y-58245611D01*
X105043070Y-58174182D02*
X105043070Y-59174182D01*
X104400212Y-58174182D02*
X104400212Y-58959896D01*
X104400212Y-58959896D02*
X104471641Y-59102754D01*
X104471641Y-59102754D02*
X104614498Y-59174182D01*
X104614498Y-59174182D02*
X104828784Y-59174182D01*
X104828784Y-59174182D02*
X104971641Y-59102754D01*
X104971641Y-59102754D02*
X105043070Y-59031325D01*
X105971641Y-59174182D02*
X105828784Y-59102754D01*
X105828784Y-59102754D02*
X105757355Y-58959896D01*
X105757355Y-58959896D02*
X105757355Y-57674182D01*
X107114498Y-59102754D02*
X106971641Y-59174182D01*
X106971641Y-59174182D02*
X106685927Y-59174182D01*
X106685927Y-59174182D02*
X106543069Y-59102754D01*
X106543069Y-59102754D02*
X106471641Y-58959896D01*
X106471641Y-58959896D02*
X106471641Y-58388468D01*
X106471641Y-58388468D02*
X106543069Y-58245611D01*
X106543069Y-58245611D02*
X106685927Y-58174182D01*
X106685927Y-58174182D02*
X106971641Y-58174182D01*
X106971641Y-58174182D02*
X107114498Y-58245611D01*
X107114498Y-58245611D02*
X107185927Y-58388468D01*
X107185927Y-58388468D02*
X107185927Y-58531325D01*
X107185927Y-58531325D02*
X106471641Y-58674182D01*
X86614500Y-62160527D02*
X86543071Y-62089098D01*
X86543071Y-62089098D02*
X86400214Y-61874812D01*
X86400214Y-61874812D02*
X86328786Y-61731955D01*
X86328786Y-61731955D02*
X86257357Y-61517670D01*
X86257357Y-61517670D02*
X86185928Y-61160527D01*
X86185928Y-61160527D02*
X86185928Y-60874812D01*
X86185928Y-60874812D02*
X86257357Y-60517670D01*
X86257357Y-60517670D02*
X86328786Y-60303384D01*
X86328786Y-60303384D02*
X86400214Y-60160527D01*
X86400214Y-60160527D02*
X86543071Y-59946241D01*
X86543071Y-59946241D02*
X86614500Y-59874812D01*
X87828786Y-60589098D02*
X87828786Y-61589098D01*
X87185928Y-60589098D02*
X87185928Y-61374812D01*
X87185928Y-61374812D02*
X87257357Y-61517670D01*
X87257357Y-61517670D02*
X87400214Y-61589098D01*
X87400214Y-61589098D02*
X87614500Y-61589098D01*
X87614500Y-61589098D02*
X87757357Y-61517670D01*
X87757357Y-61517670D02*
X87828786Y-61446241D01*
X88543071Y-60589098D02*
X88543071Y-62089098D01*
X88543071Y-60660527D02*
X88685929Y-60589098D01*
X88685929Y-60589098D02*
X88971643Y-60589098D01*
X88971643Y-60589098D02*
X89114500Y-60660527D01*
X89114500Y-60660527D02*
X89185929Y-60731955D01*
X89185929Y-60731955D02*
X89257357Y-60874812D01*
X89257357Y-60874812D02*
X89257357Y-61303384D01*
X89257357Y-61303384D02*
X89185929Y-61446241D01*
X89185929Y-61446241D02*
X89114500Y-61517670D01*
X89114500Y-61517670D02*
X88971643Y-61589098D01*
X88971643Y-61589098D02*
X88685929Y-61589098D01*
X88685929Y-61589098D02*
X88543071Y-61517670D01*
X90971643Y-61517670D02*
X91114500Y-61589098D01*
X91114500Y-61589098D02*
X91400214Y-61589098D01*
X91400214Y-61589098D02*
X91543071Y-61517670D01*
X91543071Y-61517670D02*
X91614500Y-61374812D01*
X91614500Y-61374812D02*
X91614500Y-61303384D01*
X91614500Y-61303384D02*
X91543071Y-61160527D01*
X91543071Y-61160527D02*
X91400214Y-61089098D01*
X91400214Y-61089098D02*
X91185929Y-61089098D01*
X91185929Y-61089098D02*
X91043071Y-61017670D01*
X91043071Y-61017670D02*
X90971643Y-60874812D01*
X90971643Y-60874812D02*
X90971643Y-60803384D01*
X90971643Y-60803384D02*
X91043071Y-60660527D01*
X91043071Y-60660527D02*
X91185929Y-60589098D01*
X91185929Y-60589098D02*
X91400214Y-60589098D01*
X91400214Y-60589098D02*
X91543071Y-60660527D01*
X92257357Y-61589098D02*
X92257357Y-60589098D01*
X92257357Y-60089098D02*
X92185929Y-60160527D01*
X92185929Y-60160527D02*
X92257357Y-60231955D01*
X92257357Y-60231955D02*
X92328786Y-60160527D01*
X92328786Y-60160527D02*
X92257357Y-60089098D01*
X92257357Y-60089098D02*
X92257357Y-60231955D01*
X93614501Y-61589098D02*
X93614501Y-60089098D01*
X93614501Y-61517670D02*
X93471643Y-61589098D01*
X93471643Y-61589098D02*
X93185929Y-61589098D01*
X93185929Y-61589098D02*
X93043072Y-61517670D01*
X93043072Y-61517670D02*
X92971643Y-61446241D01*
X92971643Y-61446241D02*
X92900215Y-61303384D01*
X92900215Y-61303384D02*
X92900215Y-60874812D01*
X92900215Y-60874812D02*
X92971643Y-60731955D01*
X92971643Y-60731955D02*
X93043072Y-60660527D01*
X93043072Y-60660527D02*
X93185929Y-60589098D01*
X93185929Y-60589098D02*
X93471643Y-60589098D01*
X93471643Y-60589098D02*
X93614501Y-60660527D01*
X94900215Y-61517670D02*
X94757358Y-61589098D01*
X94757358Y-61589098D02*
X94471644Y-61589098D01*
X94471644Y-61589098D02*
X94328786Y-61517670D01*
X94328786Y-61517670D02*
X94257358Y-61374812D01*
X94257358Y-61374812D02*
X94257358Y-60803384D01*
X94257358Y-60803384D02*
X94328786Y-60660527D01*
X94328786Y-60660527D02*
X94471644Y-60589098D01*
X94471644Y-60589098D02*
X94757358Y-60589098D01*
X94757358Y-60589098D02*
X94900215Y-60660527D01*
X94900215Y-60660527D02*
X94971644Y-60803384D01*
X94971644Y-60803384D02*
X94971644Y-60946241D01*
X94971644Y-60946241D02*
X94257358Y-61089098D01*
X97400215Y-61589098D02*
X97400215Y-60089098D01*
X97400215Y-61517670D02*
X97257357Y-61589098D01*
X97257357Y-61589098D02*
X96971643Y-61589098D01*
X96971643Y-61589098D02*
X96828786Y-61517670D01*
X96828786Y-61517670D02*
X96757357Y-61446241D01*
X96757357Y-61446241D02*
X96685929Y-61303384D01*
X96685929Y-61303384D02*
X96685929Y-60874812D01*
X96685929Y-60874812D02*
X96757357Y-60731955D01*
X96757357Y-60731955D02*
X96828786Y-60660527D01*
X96828786Y-60660527D02*
X96971643Y-60589098D01*
X96971643Y-60589098D02*
X97257357Y-60589098D01*
X97257357Y-60589098D02*
X97400215Y-60660527D01*
X98328786Y-61589098D02*
X98185929Y-61517670D01*
X98185929Y-61517670D02*
X98114500Y-61446241D01*
X98114500Y-61446241D02*
X98043072Y-61303384D01*
X98043072Y-61303384D02*
X98043072Y-60874812D01*
X98043072Y-60874812D02*
X98114500Y-60731955D01*
X98114500Y-60731955D02*
X98185929Y-60660527D01*
X98185929Y-60660527D02*
X98328786Y-60589098D01*
X98328786Y-60589098D02*
X98543072Y-60589098D01*
X98543072Y-60589098D02*
X98685929Y-60660527D01*
X98685929Y-60660527D02*
X98757358Y-60731955D01*
X98757358Y-60731955D02*
X98828786Y-60874812D01*
X98828786Y-60874812D02*
X98828786Y-61303384D01*
X98828786Y-61303384D02*
X98757358Y-61446241D01*
X98757358Y-61446241D02*
X98685929Y-61517670D01*
X98685929Y-61517670D02*
X98543072Y-61589098D01*
X98543072Y-61589098D02*
X98328786Y-61589098D01*
X99328786Y-60589098D02*
X99614501Y-61589098D01*
X99614501Y-61589098D02*
X99900215Y-60874812D01*
X99900215Y-60874812D02*
X100185929Y-61589098D01*
X100185929Y-61589098D02*
X100471643Y-60589098D01*
X101043072Y-60589098D02*
X101043072Y-61589098D01*
X101043072Y-60731955D02*
X101114501Y-60660527D01*
X101114501Y-60660527D02*
X101257358Y-60589098D01*
X101257358Y-60589098D02*
X101471644Y-60589098D01*
X101471644Y-60589098D02*
X101614501Y-60660527D01*
X101614501Y-60660527D02*
X101685930Y-60803384D01*
X101685930Y-60803384D02*
X101685930Y-61589098D01*
X102257358Y-62160527D02*
X102328787Y-62089098D01*
X102328787Y-62089098D02*
X102471644Y-61874812D01*
X102471644Y-61874812D02*
X102543073Y-61731955D01*
X102543073Y-61731955D02*
X102614501Y-61517670D01*
X102614501Y-61517670D02*
X102685930Y-61160527D01*
X102685930Y-61160527D02*
X102685930Y-60874812D01*
X102685930Y-60874812D02*
X102614501Y-60517670D01*
X102614501Y-60517670D02*
X102543073Y-60303384D01*
X102543073Y-60303384D02*
X102471644Y-60160527D01*
X102471644Y-60160527D02*
X102328787Y-59946241D01*
X102328787Y-59946241D02*
X102257358Y-59874812D01*
X53147414Y-36608655D02*
X53218842Y-36537227D01*
X53218842Y-36537227D02*
X53361700Y-36465798D01*
X53361700Y-36465798D02*
X53718842Y-36465798D01*
X53718842Y-36465798D02*
X53861700Y-36537227D01*
X53861700Y-36537227D02*
X53933128Y-36608655D01*
X53933128Y-36608655D02*
X54004557Y-36751512D01*
X54004557Y-36751512D02*
X54004557Y-36894370D01*
X54004557Y-36894370D02*
X53933128Y-37108655D01*
X53933128Y-37108655D02*
X53075985Y-37965798D01*
X53075985Y-37965798D02*
X54004557Y-37965798D01*
X54575985Y-37537227D02*
X55290271Y-37537227D01*
X54433128Y-37965798D02*
X54933128Y-36465798D01*
X54933128Y-36465798D02*
X55433128Y-37965798D01*
X57718842Y-37894370D02*
X57575984Y-37965798D01*
X57575984Y-37965798D02*
X57290270Y-37965798D01*
X57290270Y-37965798D02*
X57147413Y-37894370D01*
X57147413Y-37894370D02*
X57075984Y-37822941D01*
X57075984Y-37822941D02*
X57004556Y-37680084D01*
X57004556Y-37680084D02*
X57004556Y-37251512D01*
X57004556Y-37251512D02*
X57075984Y-37108655D01*
X57075984Y-37108655D02*
X57147413Y-37037227D01*
X57147413Y-37037227D02*
X57290270Y-36965798D01*
X57290270Y-36965798D02*
X57575984Y-36965798D01*
X57575984Y-36965798D02*
X57718842Y-37037227D01*
X58361698Y-37965798D02*
X58361698Y-36465798D01*
X59004556Y-37965798D02*
X59004556Y-37180084D01*
X59004556Y-37180084D02*
X58933127Y-37037227D01*
X58933127Y-37037227D02*
X58790270Y-36965798D01*
X58790270Y-36965798D02*
X58575984Y-36965798D01*
X58575984Y-36965798D02*
X58433127Y-37037227D01*
X58433127Y-37037227D02*
X58361698Y-37108655D01*
X60361699Y-37965798D02*
X60361699Y-37180084D01*
X60361699Y-37180084D02*
X60290270Y-37037227D01*
X60290270Y-37037227D02*
X60147413Y-36965798D01*
X60147413Y-36965798D02*
X59861699Y-36965798D01*
X59861699Y-36965798D02*
X59718841Y-37037227D01*
X60361699Y-37894370D02*
X60218841Y-37965798D01*
X60218841Y-37965798D02*
X59861699Y-37965798D01*
X59861699Y-37965798D02*
X59718841Y-37894370D01*
X59718841Y-37894370D02*
X59647413Y-37751512D01*
X59647413Y-37751512D02*
X59647413Y-37608655D01*
X59647413Y-37608655D02*
X59718841Y-37465798D01*
X59718841Y-37465798D02*
X59861699Y-37394370D01*
X59861699Y-37394370D02*
X60218841Y-37394370D01*
X60218841Y-37394370D02*
X60361699Y-37322941D01*
X61075984Y-37965798D02*
X61075984Y-36965798D01*
X61075984Y-37251512D02*
X61147413Y-37108655D01*
X61147413Y-37108655D02*
X61218842Y-37037227D01*
X61218842Y-37037227D02*
X61361699Y-36965798D01*
X61361699Y-36965798D02*
X61504556Y-36965798D01*
X62647413Y-36965798D02*
X62647413Y-38180084D01*
X62647413Y-38180084D02*
X62575984Y-38322941D01*
X62575984Y-38322941D02*
X62504555Y-38394370D01*
X62504555Y-38394370D02*
X62361698Y-38465798D01*
X62361698Y-38465798D02*
X62147413Y-38465798D01*
X62147413Y-38465798D02*
X62004555Y-38394370D01*
X62647413Y-37894370D02*
X62504555Y-37965798D01*
X62504555Y-37965798D02*
X62218841Y-37965798D01*
X62218841Y-37965798D02*
X62075984Y-37894370D01*
X62075984Y-37894370D02*
X62004555Y-37822941D01*
X62004555Y-37822941D02*
X61933127Y-37680084D01*
X61933127Y-37680084D02*
X61933127Y-37251512D01*
X61933127Y-37251512D02*
X62004555Y-37108655D01*
X62004555Y-37108655D02*
X62075984Y-37037227D01*
X62075984Y-37037227D02*
X62218841Y-36965798D01*
X62218841Y-36965798D02*
X62504555Y-36965798D01*
X62504555Y-36965798D02*
X62647413Y-37037227D01*
X63933127Y-37894370D02*
X63790270Y-37965798D01*
X63790270Y-37965798D02*
X63504556Y-37965798D01*
X63504556Y-37965798D02*
X63361698Y-37894370D01*
X63361698Y-37894370D02*
X63290270Y-37751512D01*
X63290270Y-37751512D02*
X63290270Y-37180084D01*
X63290270Y-37180084D02*
X63361698Y-37037227D01*
X63361698Y-37037227D02*
X63504556Y-36965798D01*
X63504556Y-36965798D02*
X63790270Y-36965798D01*
X63790270Y-36965798D02*
X63933127Y-37037227D01*
X63933127Y-37037227D02*
X64004556Y-37180084D01*
X64004556Y-37180084D02*
X64004556Y-37322941D01*
X64004556Y-37322941D02*
X63290270Y-37465798D01*
X64647412Y-37965798D02*
X64647412Y-36965798D01*
X64647412Y-37251512D02*
X64718841Y-37108655D01*
X64718841Y-37108655D02*
X64790270Y-37037227D01*
X64790270Y-37037227D02*
X64933127Y-36965798D01*
X64933127Y-36965798D02*
X65075984Y-36965798D01*
X66718840Y-37965798D02*
X66718840Y-36965798D01*
X66718840Y-37108655D02*
X66790269Y-37037227D01*
X66790269Y-37037227D02*
X66933126Y-36965798D01*
X66933126Y-36965798D02*
X67147412Y-36965798D01*
X67147412Y-36965798D02*
X67290269Y-37037227D01*
X67290269Y-37037227D02*
X67361698Y-37180084D01*
X67361698Y-37180084D02*
X67361698Y-37965798D01*
X67361698Y-37180084D02*
X67433126Y-37037227D01*
X67433126Y-37037227D02*
X67575983Y-36965798D01*
X67575983Y-36965798D02*
X67790269Y-36965798D01*
X67790269Y-36965798D02*
X67933126Y-37037227D01*
X67933126Y-37037227D02*
X68004555Y-37180084D01*
X68004555Y-37180084D02*
X68004555Y-37965798D01*
X68933126Y-37965798D02*
X68790269Y-37894370D01*
X68790269Y-37894370D02*
X68718840Y-37822941D01*
X68718840Y-37822941D02*
X68647412Y-37680084D01*
X68647412Y-37680084D02*
X68647412Y-37251512D01*
X68647412Y-37251512D02*
X68718840Y-37108655D01*
X68718840Y-37108655D02*
X68790269Y-37037227D01*
X68790269Y-37037227D02*
X68933126Y-36965798D01*
X68933126Y-36965798D02*
X69147412Y-36965798D01*
X69147412Y-36965798D02*
X69290269Y-37037227D01*
X69290269Y-37037227D02*
X69361698Y-37108655D01*
X69361698Y-37108655D02*
X69433126Y-37251512D01*
X69433126Y-37251512D02*
X69433126Y-37680084D01*
X69433126Y-37680084D02*
X69361698Y-37822941D01*
X69361698Y-37822941D02*
X69290269Y-37894370D01*
X69290269Y-37894370D02*
X69147412Y-37965798D01*
X69147412Y-37965798D02*
X68933126Y-37965798D01*
X70718841Y-37965798D02*
X70718841Y-36465798D01*
X70718841Y-37894370D02*
X70575983Y-37965798D01*
X70575983Y-37965798D02*
X70290269Y-37965798D01*
X70290269Y-37965798D02*
X70147412Y-37894370D01*
X70147412Y-37894370D02*
X70075983Y-37822941D01*
X70075983Y-37822941D02*
X70004555Y-37680084D01*
X70004555Y-37680084D02*
X70004555Y-37251512D01*
X70004555Y-37251512D02*
X70075983Y-37108655D01*
X70075983Y-37108655D02*
X70147412Y-37037227D01*
X70147412Y-37037227D02*
X70290269Y-36965798D01*
X70290269Y-36965798D02*
X70575983Y-36965798D01*
X70575983Y-36965798D02*
X70718841Y-37037227D01*
X72075984Y-36965798D02*
X72075984Y-37965798D01*
X71433126Y-36965798D02*
X71433126Y-37751512D01*
X71433126Y-37751512D02*
X71504555Y-37894370D01*
X71504555Y-37894370D02*
X71647412Y-37965798D01*
X71647412Y-37965798D02*
X71861698Y-37965798D01*
X71861698Y-37965798D02*
X72004555Y-37894370D01*
X72004555Y-37894370D02*
X72075984Y-37822941D01*
X73004555Y-37965798D02*
X72861698Y-37894370D01*
X72861698Y-37894370D02*
X72790269Y-37751512D01*
X72790269Y-37751512D02*
X72790269Y-36465798D01*
X74147412Y-37894370D02*
X74004555Y-37965798D01*
X74004555Y-37965798D02*
X73718841Y-37965798D01*
X73718841Y-37965798D02*
X73575983Y-37894370D01*
X73575983Y-37894370D02*
X73504555Y-37751512D01*
X73504555Y-37751512D02*
X73504555Y-37180084D01*
X73504555Y-37180084D02*
X73575983Y-37037227D01*
X73575983Y-37037227D02*
X73718841Y-36965798D01*
X73718841Y-36965798D02*
X74004555Y-36965798D01*
X74004555Y-36965798D02*
X74147412Y-37037227D01*
X74147412Y-37037227D02*
X74218841Y-37180084D01*
X74218841Y-37180084D02*
X74218841Y-37322941D01*
X74218841Y-37322941D02*
X73504555Y-37465798D01*
X51488720Y-31306028D02*
X51488720Y-30306028D01*
X51488720Y-29806028D02*
X51417292Y-29877457D01*
X51417292Y-29877457D02*
X51488720Y-29948885D01*
X51488720Y-29948885D02*
X51560149Y-29877457D01*
X51560149Y-29877457D02*
X51488720Y-29806028D01*
X51488720Y-29806028D02*
X51488720Y-29948885D01*
X52203006Y-30306028D02*
X52203006Y-31306028D01*
X52203006Y-30448885D02*
X52274435Y-30377457D01*
X52274435Y-30377457D02*
X52417292Y-30306028D01*
X52417292Y-30306028D02*
X52631578Y-30306028D01*
X52631578Y-30306028D02*
X52774435Y-30377457D01*
X52774435Y-30377457D02*
X52845864Y-30520314D01*
X52845864Y-30520314D02*
X52845864Y-31306028D01*
X53488721Y-31234600D02*
X53631578Y-31306028D01*
X53631578Y-31306028D02*
X53917292Y-31306028D01*
X53917292Y-31306028D02*
X54060149Y-31234600D01*
X54060149Y-31234600D02*
X54131578Y-31091742D01*
X54131578Y-31091742D02*
X54131578Y-31020314D01*
X54131578Y-31020314D02*
X54060149Y-30877457D01*
X54060149Y-30877457D02*
X53917292Y-30806028D01*
X53917292Y-30806028D02*
X53703007Y-30806028D01*
X53703007Y-30806028D02*
X53560149Y-30734600D01*
X53560149Y-30734600D02*
X53488721Y-30591742D01*
X53488721Y-30591742D02*
X53488721Y-30520314D01*
X53488721Y-30520314D02*
X53560149Y-30377457D01*
X53560149Y-30377457D02*
X53703007Y-30306028D01*
X53703007Y-30306028D02*
X53917292Y-30306028D01*
X53917292Y-30306028D02*
X54060149Y-30377457D01*
X54774435Y-31306028D02*
X54774435Y-30306028D01*
X54774435Y-29806028D02*
X54703007Y-29877457D01*
X54703007Y-29877457D02*
X54774435Y-29948885D01*
X54774435Y-29948885D02*
X54845864Y-29877457D01*
X54845864Y-29877457D02*
X54774435Y-29806028D01*
X54774435Y-29806028D02*
X54774435Y-29948885D01*
X56131579Y-31306028D02*
X56131579Y-29806028D01*
X56131579Y-31234600D02*
X55988721Y-31306028D01*
X55988721Y-31306028D02*
X55703007Y-31306028D01*
X55703007Y-31306028D02*
X55560150Y-31234600D01*
X55560150Y-31234600D02*
X55488721Y-31163171D01*
X55488721Y-31163171D02*
X55417293Y-31020314D01*
X55417293Y-31020314D02*
X55417293Y-30591742D01*
X55417293Y-30591742D02*
X55488721Y-30448885D01*
X55488721Y-30448885D02*
X55560150Y-30377457D01*
X55560150Y-30377457D02*
X55703007Y-30306028D01*
X55703007Y-30306028D02*
X55988721Y-30306028D01*
X55988721Y-30306028D02*
X56131579Y-30377457D01*
X57417293Y-31234600D02*
X57274436Y-31306028D01*
X57274436Y-31306028D02*
X56988722Y-31306028D01*
X56988722Y-31306028D02*
X56845864Y-31234600D01*
X56845864Y-31234600D02*
X56774436Y-31091742D01*
X56774436Y-31091742D02*
X56774436Y-30520314D01*
X56774436Y-30520314D02*
X56845864Y-30377457D01*
X56845864Y-30377457D02*
X56988722Y-30306028D01*
X56988722Y-30306028D02*
X57274436Y-30306028D01*
X57274436Y-30306028D02*
X57417293Y-30377457D01*
X57417293Y-30377457D02*
X57488722Y-30520314D01*
X57488722Y-30520314D02*
X57488722Y-30663171D01*
X57488722Y-30663171D02*
X56774436Y-30806028D01*
X54488720Y-74306028D02*
X54488720Y-73306028D01*
X54488720Y-72806028D02*
X54417292Y-72877457D01*
X54417292Y-72877457D02*
X54488720Y-72948885D01*
X54488720Y-72948885D02*
X54560149Y-72877457D01*
X54560149Y-72877457D02*
X54488720Y-72806028D01*
X54488720Y-72806028D02*
X54488720Y-72948885D01*
X55203006Y-73306028D02*
X55203006Y-74306028D01*
X55203006Y-73448885D02*
X55274435Y-73377457D01*
X55274435Y-73377457D02*
X55417292Y-73306028D01*
X55417292Y-73306028D02*
X55631578Y-73306028D01*
X55631578Y-73306028D02*
X55774435Y-73377457D01*
X55774435Y-73377457D02*
X55845864Y-73520314D01*
X55845864Y-73520314D02*
X55845864Y-74306028D01*
X56488721Y-74234600D02*
X56631578Y-74306028D01*
X56631578Y-74306028D02*
X56917292Y-74306028D01*
X56917292Y-74306028D02*
X57060149Y-74234600D01*
X57060149Y-74234600D02*
X57131578Y-74091742D01*
X57131578Y-74091742D02*
X57131578Y-74020314D01*
X57131578Y-74020314D02*
X57060149Y-73877457D01*
X57060149Y-73877457D02*
X56917292Y-73806028D01*
X56917292Y-73806028D02*
X56703007Y-73806028D01*
X56703007Y-73806028D02*
X56560149Y-73734600D01*
X56560149Y-73734600D02*
X56488721Y-73591742D01*
X56488721Y-73591742D02*
X56488721Y-73520314D01*
X56488721Y-73520314D02*
X56560149Y-73377457D01*
X56560149Y-73377457D02*
X56703007Y-73306028D01*
X56703007Y-73306028D02*
X56917292Y-73306028D01*
X56917292Y-73306028D02*
X57060149Y-73377457D01*
X57774435Y-74306028D02*
X57774435Y-73306028D01*
X57774435Y-72806028D02*
X57703007Y-72877457D01*
X57703007Y-72877457D02*
X57774435Y-72948885D01*
X57774435Y-72948885D02*
X57845864Y-72877457D01*
X57845864Y-72877457D02*
X57774435Y-72806028D01*
X57774435Y-72806028D02*
X57774435Y-72948885D01*
X59131579Y-74306028D02*
X59131579Y-72806028D01*
X59131579Y-74234600D02*
X58988721Y-74306028D01*
X58988721Y-74306028D02*
X58703007Y-74306028D01*
X58703007Y-74306028D02*
X58560150Y-74234600D01*
X58560150Y-74234600D02*
X58488721Y-74163171D01*
X58488721Y-74163171D02*
X58417293Y-74020314D01*
X58417293Y-74020314D02*
X58417293Y-73591742D01*
X58417293Y-73591742D02*
X58488721Y-73448885D01*
X58488721Y-73448885D02*
X58560150Y-73377457D01*
X58560150Y-73377457D02*
X58703007Y-73306028D01*
X58703007Y-73306028D02*
X58988721Y-73306028D01*
X58988721Y-73306028D02*
X59131579Y-73377457D01*
X60417293Y-74234600D02*
X60274436Y-74306028D01*
X60274436Y-74306028D02*
X59988722Y-74306028D01*
X59988722Y-74306028D02*
X59845864Y-74234600D01*
X59845864Y-74234600D02*
X59774436Y-74091742D01*
X59774436Y-74091742D02*
X59774436Y-73520314D01*
X59774436Y-73520314D02*
X59845864Y-73377457D01*
X59845864Y-73377457D02*
X59988722Y-73306028D01*
X59988722Y-73306028D02*
X60274436Y-73306028D01*
X60274436Y-73306028D02*
X60417293Y-73377457D01*
X60417293Y-73377457D02*
X60488722Y-73520314D01*
X60488722Y-73520314D02*
X60488722Y-73663171D01*
X60488722Y-73663171D02*
X59774436Y-73806028D01*
D13*
X116190476Y-46454819D02*
X116190476Y-47169104D01*
X116190476Y-47169104D02*
X116142857Y-47311961D01*
X116142857Y-47311961D02*
X116047619Y-47407200D01*
X116047619Y-47407200D02*
X115904762Y-47454819D01*
X115904762Y-47454819D02*
X115809524Y-47454819D01*
X117190476Y-47454819D02*
X116619048Y-47454819D01*
X116904762Y-47454819D02*
X116904762Y-46454819D01*
X116904762Y-46454819D02*
X116809524Y-46597676D01*
X116809524Y-46597676D02*
X116714286Y-46692914D01*
X116714286Y-46692914D02*
X116619048Y-46740533D01*
X118142857Y-47454819D02*
X117571429Y-47454819D01*
X117857143Y-47454819D02*
X117857143Y-46454819D01*
X117857143Y-46454819D02*
X117761905Y-46597676D01*
X117761905Y-46597676D02*
X117666667Y-46692914D01*
X117666667Y-46692914D02*
X117571429Y-46740533D01*
X86666666Y-52834819D02*
X86666666Y-53549104D01*
X86666666Y-53549104D02*
X86619047Y-53691961D01*
X86619047Y-53691961D02*
X86523809Y-53787200D01*
X86523809Y-53787200D02*
X86380952Y-53834819D01*
X86380952Y-53834819D02*
X86285714Y-53834819D01*
X87285714Y-53263390D02*
X87190476Y-53215771D01*
X87190476Y-53215771D02*
X87142857Y-53168152D01*
X87142857Y-53168152D02*
X87095238Y-53072914D01*
X87095238Y-53072914D02*
X87095238Y-53025295D01*
X87095238Y-53025295D02*
X87142857Y-52930057D01*
X87142857Y-52930057D02*
X87190476Y-52882438D01*
X87190476Y-52882438D02*
X87285714Y-52834819D01*
X87285714Y-52834819D02*
X87476190Y-52834819D01*
X87476190Y-52834819D02*
X87571428Y-52882438D01*
X87571428Y-52882438D02*
X87619047Y-52930057D01*
X87619047Y-52930057D02*
X87666666Y-53025295D01*
X87666666Y-53025295D02*
X87666666Y-53072914D01*
X87666666Y-53072914D02*
X87619047Y-53168152D01*
X87619047Y-53168152D02*
X87571428Y-53215771D01*
X87571428Y-53215771D02*
X87476190Y-53263390D01*
X87476190Y-53263390D02*
X87285714Y-53263390D01*
X87285714Y-53263390D02*
X87190476Y-53311009D01*
X87190476Y-53311009D02*
X87142857Y-53358628D01*
X87142857Y-53358628D02*
X87095238Y-53453866D01*
X87095238Y-53453866D02*
X87095238Y-53644342D01*
X87095238Y-53644342D02*
X87142857Y-53739580D01*
X87142857Y-53739580D02*
X87190476Y-53787200D01*
X87190476Y-53787200D02*
X87285714Y-53834819D01*
X87285714Y-53834819D02*
X87476190Y-53834819D01*
X87476190Y-53834819D02*
X87571428Y-53787200D01*
X87571428Y-53787200D02*
X87619047Y-53739580D01*
X87619047Y-53739580D02*
X87666666Y-53644342D01*
X87666666Y-53644342D02*
X87666666Y-53453866D01*
X87666666Y-53453866D02*
X87619047Y-53358628D01*
X87619047Y-53358628D02*
X87571428Y-53311009D01*
X87571428Y-53311009D02*
X87476190Y-53263390D01*
X35690476Y-58454819D02*
X35690476Y-59169104D01*
X35690476Y-59169104D02*
X35642857Y-59311961D01*
X35642857Y-59311961D02*
X35547619Y-59407200D01*
X35547619Y-59407200D02*
X35404762Y-59454819D01*
X35404762Y-59454819D02*
X35309524Y-59454819D01*
X36119048Y-58550057D02*
X36166667Y-58502438D01*
X36166667Y-58502438D02*
X36261905Y-58454819D01*
X36261905Y-58454819D02*
X36500000Y-58454819D01*
X36500000Y-58454819D02*
X36595238Y-58502438D01*
X36595238Y-58502438D02*
X36642857Y-58550057D01*
X36642857Y-58550057D02*
X36690476Y-58645295D01*
X36690476Y-58645295D02*
X36690476Y-58740533D01*
X36690476Y-58740533D02*
X36642857Y-58883390D01*
X36642857Y-58883390D02*
X36071429Y-59454819D01*
X36071429Y-59454819D02*
X36690476Y-59454819D01*
X37642857Y-59454819D02*
X37071429Y-59454819D01*
X37357143Y-59454819D02*
X37357143Y-58454819D01*
X37357143Y-58454819D02*
X37261905Y-58597676D01*
X37261905Y-58597676D02*
X37166667Y-58692914D01*
X37166667Y-58692914D02*
X37071429Y-58740533D01*
X143690476Y-59954819D02*
X143690476Y-60669104D01*
X143690476Y-60669104D02*
X143642857Y-60811961D01*
X143642857Y-60811961D02*
X143547619Y-60907200D01*
X143547619Y-60907200D02*
X143404762Y-60954819D01*
X143404762Y-60954819D02*
X143309524Y-60954819D01*
X144690476Y-60954819D02*
X144119048Y-60954819D01*
X144404762Y-60954819D02*
X144404762Y-59954819D01*
X144404762Y-59954819D02*
X144309524Y-60097676D01*
X144309524Y-60097676D02*
X144214286Y-60192914D01*
X144214286Y-60192914D02*
X144119048Y-60240533D01*
X145261905Y-60383390D02*
X145166667Y-60335771D01*
X145166667Y-60335771D02*
X145119048Y-60288152D01*
X145119048Y-60288152D02*
X145071429Y-60192914D01*
X145071429Y-60192914D02*
X145071429Y-60145295D01*
X145071429Y-60145295D02*
X145119048Y-60050057D01*
X145119048Y-60050057D02*
X145166667Y-60002438D01*
X145166667Y-60002438D02*
X145261905Y-59954819D01*
X145261905Y-59954819D02*
X145452381Y-59954819D01*
X145452381Y-59954819D02*
X145547619Y-60002438D01*
X145547619Y-60002438D02*
X145595238Y-60050057D01*
X145595238Y-60050057D02*
X145642857Y-60145295D01*
X145642857Y-60145295D02*
X145642857Y-60192914D01*
X145642857Y-60192914D02*
X145595238Y-60288152D01*
X145595238Y-60288152D02*
X145547619Y-60335771D01*
X145547619Y-60335771D02*
X145452381Y-60383390D01*
X145452381Y-60383390D02*
X145261905Y-60383390D01*
X145261905Y-60383390D02*
X145166667Y-60431009D01*
X145166667Y-60431009D02*
X145119048Y-60478628D01*
X145119048Y-60478628D02*
X145071429Y-60573866D01*
X145071429Y-60573866D02*
X145071429Y-60764342D01*
X145071429Y-60764342D02*
X145119048Y-60859580D01*
X145119048Y-60859580D02*
X145166667Y-60907200D01*
X145166667Y-60907200D02*
X145261905Y-60954819D01*
X145261905Y-60954819D02*
X145452381Y-60954819D01*
X145452381Y-60954819D02*
X145547619Y-60907200D01*
X145547619Y-60907200D02*
X145595238Y-60859580D01*
X145595238Y-60859580D02*
X145642857Y-60764342D01*
X145642857Y-60764342D02*
X145642857Y-60573866D01*
X145642857Y-60573866D02*
X145595238Y-60478628D01*
X145595238Y-60478628D02*
X145547619Y-60431009D01*
X145547619Y-60431009D02*
X145452381Y-60383390D01*
X49190476Y-31954819D02*
X49190476Y-32669104D01*
X49190476Y-32669104D02*
X49142857Y-32811961D01*
X49142857Y-32811961D02*
X49047619Y-32907200D01*
X49047619Y-32907200D02*
X48904762Y-32954819D01*
X48904762Y-32954819D02*
X48809524Y-32954819D01*
X49619048Y-32050057D02*
X49666667Y-32002438D01*
X49666667Y-32002438D02*
X49761905Y-31954819D01*
X49761905Y-31954819D02*
X50000000Y-31954819D01*
X50000000Y-31954819D02*
X50095238Y-32002438D01*
X50095238Y-32002438D02*
X50142857Y-32050057D01*
X50142857Y-32050057D02*
X50190476Y-32145295D01*
X50190476Y-32145295D02*
X50190476Y-32240533D01*
X50190476Y-32240533D02*
X50142857Y-32383390D01*
X50142857Y-32383390D02*
X49571429Y-32954819D01*
X49571429Y-32954819D02*
X50190476Y-32954819D01*
X51047619Y-32288152D02*
X51047619Y-32954819D01*
X50809524Y-31907200D02*
X50571429Y-32621485D01*
X50571429Y-32621485D02*
X51190476Y-32621485D01*
D10*
X126428571Y-45612100D02*
X127571429Y-45612100D01*
X127000000Y-46183528D02*
X127000000Y-45040671D01*
D13*
X79190476Y-49454819D02*
X79190476Y-50169104D01*
X79190476Y-50169104D02*
X79142857Y-50311961D01*
X79142857Y-50311961D02*
X79047619Y-50407200D01*
X79047619Y-50407200D02*
X78904762Y-50454819D01*
X78904762Y-50454819D02*
X78809524Y-50454819D01*
X80190476Y-50454819D02*
X79619048Y-50454819D01*
X79904762Y-50454819D02*
X79904762Y-49454819D01*
X79904762Y-49454819D02*
X79809524Y-49597676D01*
X79809524Y-49597676D02*
X79714286Y-49692914D01*
X79714286Y-49692914D02*
X79619048Y-49740533D01*
X80523810Y-49454819D02*
X81142857Y-49454819D01*
X81142857Y-49454819D02*
X80809524Y-49835771D01*
X80809524Y-49835771D02*
X80952381Y-49835771D01*
X80952381Y-49835771D02*
X81047619Y-49883390D01*
X81047619Y-49883390D02*
X81095238Y-49931009D01*
X81095238Y-49931009D02*
X81142857Y-50026247D01*
X81142857Y-50026247D02*
X81142857Y-50264342D01*
X81142857Y-50264342D02*
X81095238Y-50359580D01*
X81095238Y-50359580D02*
X81047619Y-50407200D01*
X81047619Y-50407200D02*
X80952381Y-50454819D01*
X80952381Y-50454819D02*
X80666667Y-50454819D01*
X80666667Y-50454819D02*
X80571429Y-50407200D01*
X80571429Y-50407200D02*
X80523810Y-50359580D01*
X52666666Y-40454819D02*
X52666666Y-41169104D01*
X52666666Y-41169104D02*
X52619047Y-41311961D01*
X52619047Y-41311961D02*
X52523809Y-41407200D01*
X52523809Y-41407200D02*
X52380952Y-41454819D01*
X52380952Y-41454819D02*
X52285714Y-41454819D01*
X53047619Y-40454819D02*
X53714285Y-40454819D01*
X53714285Y-40454819D02*
X53285714Y-41454819D01*
X116190476Y-48454819D02*
X116190476Y-49169104D01*
X116190476Y-49169104D02*
X116142857Y-49311961D01*
X116142857Y-49311961D02*
X116047619Y-49407200D01*
X116047619Y-49407200D02*
X115904762Y-49454819D01*
X115904762Y-49454819D02*
X115809524Y-49454819D01*
X117190476Y-49454819D02*
X116619048Y-49454819D01*
X116904762Y-49454819D02*
X116904762Y-48454819D01*
X116904762Y-48454819D02*
X116809524Y-48597676D01*
X116809524Y-48597676D02*
X116714286Y-48692914D01*
X116714286Y-48692914D02*
X116619048Y-48740533D01*
X117571429Y-48550057D02*
X117619048Y-48502438D01*
X117619048Y-48502438D02*
X117714286Y-48454819D01*
X117714286Y-48454819D02*
X117952381Y-48454819D01*
X117952381Y-48454819D02*
X118047619Y-48502438D01*
X118047619Y-48502438D02*
X118095238Y-48550057D01*
X118095238Y-48550057D02*
X118142857Y-48645295D01*
X118142857Y-48645295D02*
X118142857Y-48740533D01*
X118142857Y-48740533D02*
X118095238Y-48883390D01*
X118095238Y-48883390D02*
X117523810Y-49454819D01*
X117523810Y-49454819D02*
X118142857Y-49454819D01*
X144690476Y-37954819D02*
X144690476Y-38669104D01*
X144690476Y-38669104D02*
X144642857Y-38811961D01*
X144642857Y-38811961D02*
X144547619Y-38907200D01*
X144547619Y-38907200D02*
X144404762Y-38954819D01*
X144404762Y-38954819D02*
X144309524Y-38954819D01*
X145119048Y-38050057D02*
X145166667Y-38002438D01*
X145166667Y-38002438D02*
X145261905Y-37954819D01*
X145261905Y-37954819D02*
X145500000Y-37954819D01*
X145500000Y-37954819D02*
X145595238Y-38002438D01*
X145595238Y-38002438D02*
X145642857Y-38050057D01*
X145642857Y-38050057D02*
X145690476Y-38145295D01*
X145690476Y-38145295D02*
X145690476Y-38240533D01*
X145690476Y-38240533D02*
X145642857Y-38383390D01*
X145642857Y-38383390D02*
X145071429Y-38954819D01*
X145071429Y-38954819D02*
X145690476Y-38954819D01*
X146166667Y-38954819D02*
X146357143Y-38954819D01*
X146357143Y-38954819D02*
X146452381Y-38907200D01*
X146452381Y-38907200D02*
X146500000Y-38859580D01*
X146500000Y-38859580D02*
X146595238Y-38716723D01*
X146595238Y-38716723D02*
X146642857Y-38526247D01*
X146642857Y-38526247D02*
X146642857Y-38145295D01*
X146642857Y-38145295D02*
X146595238Y-38050057D01*
X146595238Y-38050057D02*
X146547619Y-38002438D01*
X146547619Y-38002438D02*
X146452381Y-37954819D01*
X146452381Y-37954819D02*
X146261905Y-37954819D01*
X146261905Y-37954819D02*
X146166667Y-38002438D01*
X146166667Y-38002438D02*
X146119048Y-38050057D01*
X146119048Y-38050057D02*
X146071429Y-38145295D01*
X146071429Y-38145295D02*
X146071429Y-38383390D01*
X146071429Y-38383390D02*
X146119048Y-38478628D01*
X146119048Y-38478628D02*
X146166667Y-38526247D01*
X146166667Y-38526247D02*
X146261905Y-38573866D01*
X146261905Y-38573866D02*
X146452381Y-38573866D01*
X146452381Y-38573866D02*
X146547619Y-38526247D01*
X146547619Y-38526247D02*
X146595238Y-38478628D01*
X146595238Y-38478628D02*
X146642857Y-38383390D01*
X118190476Y-60954819D02*
X118190476Y-61669104D01*
X118190476Y-61669104D02*
X118142857Y-61811961D01*
X118142857Y-61811961D02*
X118047619Y-61907200D01*
X118047619Y-61907200D02*
X117904762Y-61954819D01*
X117904762Y-61954819D02*
X117809524Y-61954819D01*
X119190476Y-61954819D02*
X118619048Y-61954819D01*
X118904762Y-61954819D02*
X118904762Y-60954819D01*
X118904762Y-60954819D02*
X118809524Y-61097676D01*
X118809524Y-61097676D02*
X118714286Y-61192914D01*
X118714286Y-61192914D02*
X118619048Y-61240533D01*
X120095238Y-60954819D02*
X119619048Y-60954819D01*
X119619048Y-60954819D02*
X119571429Y-61431009D01*
X119571429Y-61431009D02*
X119619048Y-61383390D01*
X119619048Y-61383390D02*
X119714286Y-61335771D01*
X119714286Y-61335771D02*
X119952381Y-61335771D01*
X119952381Y-61335771D02*
X120047619Y-61383390D01*
X120047619Y-61383390D02*
X120095238Y-61431009D01*
X120095238Y-61431009D02*
X120142857Y-61526247D01*
X120142857Y-61526247D02*
X120142857Y-61764342D01*
X120142857Y-61764342D02*
X120095238Y-61859580D01*
X120095238Y-61859580D02*
X120047619Y-61907200D01*
X120047619Y-61907200D02*
X119952381Y-61954819D01*
X119952381Y-61954819D02*
X119714286Y-61954819D01*
X119714286Y-61954819D02*
X119619048Y-61907200D01*
X119619048Y-61907200D02*
X119571429Y-61859580D01*
X118666666Y-67454819D02*
X118666666Y-68169104D01*
X118666666Y-68169104D02*
X118619047Y-68311961D01*
X118619047Y-68311961D02*
X118523809Y-68407200D01*
X118523809Y-68407200D02*
X118380952Y-68454819D01*
X118380952Y-68454819D02*
X118285714Y-68454819D01*
X119571428Y-67454819D02*
X119380952Y-67454819D01*
X119380952Y-67454819D02*
X119285714Y-67502438D01*
X119285714Y-67502438D02*
X119238095Y-67550057D01*
X119238095Y-67550057D02*
X119142857Y-67692914D01*
X119142857Y-67692914D02*
X119095238Y-67883390D01*
X119095238Y-67883390D02*
X119095238Y-68264342D01*
X119095238Y-68264342D02*
X119142857Y-68359580D01*
X119142857Y-68359580D02*
X119190476Y-68407200D01*
X119190476Y-68407200D02*
X119285714Y-68454819D01*
X119285714Y-68454819D02*
X119476190Y-68454819D01*
X119476190Y-68454819D02*
X119571428Y-68407200D01*
X119571428Y-68407200D02*
X119619047Y-68359580D01*
X119619047Y-68359580D02*
X119666666Y-68264342D01*
X119666666Y-68264342D02*
X119666666Y-68026247D01*
X119666666Y-68026247D02*
X119619047Y-67931009D01*
X119619047Y-67931009D02*
X119571428Y-67883390D01*
X119571428Y-67883390D02*
X119476190Y-67835771D01*
X119476190Y-67835771D02*
X119285714Y-67835771D01*
X119285714Y-67835771D02*
X119190476Y-67883390D01*
X119190476Y-67883390D02*
X119142857Y-67931009D01*
X119142857Y-67931009D02*
X119095238Y-68026247D01*
X51190476Y-76454819D02*
X51190476Y-77169104D01*
X51190476Y-77169104D02*
X51142857Y-77311961D01*
X51142857Y-77311961D02*
X51047619Y-77407200D01*
X51047619Y-77407200D02*
X50904762Y-77454819D01*
X50904762Y-77454819D02*
X50809524Y-77454819D01*
X51619048Y-76550057D02*
X51666667Y-76502438D01*
X51666667Y-76502438D02*
X51761905Y-76454819D01*
X51761905Y-76454819D02*
X52000000Y-76454819D01*
X52000000Y-76454819D02*
X52095238Y-76502438D01*
X52095238Y-76502438D02*
X52142857Y-76550057D01*
X52142857Y-76550057D02*
X52190476Y-76645295D01*
X52190476Y-76645295D02*
X52190476Y-76740533D01*
X52190476Y-76740533D02*
X52142857Y-76883390D01*
X52142857Y-76883390D02*
X51571429Y-77454819D01*
X51571429Y-77454819D02*
X52190476Y-77454819D01*
X52523810Y-76454819D02*
X53190476Y-76454819D01*
X53190476Y-76454819D02*
X52761905Y-77454819D01*
X118190476Y-101454819D02*
X118190476Y-102169104D01*
X118190476Y-102169104D02*
X118142857Y-102311961D01*
X118142857Y-102311961D02*
X118047619Y-102407200D01*
X118047619Y-102407200D02*
X117904762Y-102454819D01*
X117904762Y-102454819D02*
X117809524Y-102454819D01*
X118571429Y-101454819D02*
X119190476Y-101454819D01*
X119190476Y-101454819D02*
X118857143Y-101835771D01*
X118857143Y-101835771D02*
X119000000Y-101835771D01*
X119000000Y-101835771D02*
X119095238Y-101883390D01*
X119095238Y-101883390D02*
X119142857Y-101931009D01*
X119142857Y-101931009D02*
X119190476Y-102026247D01*
X119190476Y-102026247D02*
X119190476Y-102264342D01*
X119190476Y-102264342D02*
X119142857Y-102359580D01*
X119142857Y-102359580D02*
X119095238Y-102407200D01*
X119095238Y-102407200D02*
X119000000Y-102454819D01*
X119000000Y-102454819D02*
X118714286Y-102454819D01*
X118714286Y-102454819D02*
X118619048Y-102407200D01*
X118619048Y-102407200D02*
X118571429Y-102359580D01*
X119571429Y-101550057D02*
X119619048Y-101502438D01*
X119619048Y-101502438D02*
X119714286Y-101454819D01*
X119714286Y-101454819D02*
X119952381Y-101454819D01*
X119952381Y-101454819D02*
X120047619Y-101502438D01*
X120047619Y-101502438D02*
X120095238Y-101550057D01*
X120095238Y-101550057D02*
X120142857Y-101645295D01*
X120142857Y-101645295D02*
X120142857Y-101740533D01*
X120142857Y-101740533D02*
X120095238Y-101883390D01*
X120095238Y-101883390D02*
X119523810Y-102454819D01*
X119523810Y-102454819D02*
X120142857Y-102454819D01*
D10*
X160428571Y-59612100D02*
X161571429Y-59612100D01*
D13*
X144690476Y-56954819D02*
X144690476Y-57669104D01*
X144690476Y-57669104D02*
X144642857Y-57811961D01*
X144642857Y-57811961D02*
X144547619Y-57907200D01*
X144547619Y-57907200D02*
X144404762Y-57954819D01*
X144404762Y-57954819D02*
X144309524Y-57954819D01*
X145071429Y-56954819D02*
X145690476Y-56954819D01*
X145690476Y-56954819D02*
X145357143Y-57335771D01*
X145357143Y-57335771D02*
X145500000Y-57335771D01*
X145500000Y-57335771D02*
X145595238Y-57383390D01*
X145595238Y-57383390D02*
X145642857Y-57431009D01*
X145642857Y-57431009D02*
X145690476Y-57526247D01*
X145690476Y-57526247D02*
X145690476Y-57764342D01*
X145690476Y-57764342D02*
X145642857Y-57859580D01*
X145642857Y-57859580D02*
X145595238Y-57907200D01*
X145595238Y-57907200D02*
X145500000Y-57954819D01*
X145500000Y-57954819D02*
X145214286Y-57954819D01*
X145214286Y-57954819D02*
X145119048Y-57907200D01*
X145119048Y-57907200D02*
X145071429Y-57859580D01*
X146309524Y-56954819D02*
X146404762Y-56954819D01*
X146404762Y-56954819D02*
X146500000Y-57002438D01*
X146500000Y-57002438D02*
X146547619Y-57050057D01*
X146547619Y-57050057D02*
X146595238Y-57145295D01*
X146595238Y-57145295D02*
X146642857Y-57335771D01*
X146642857Y-57335771D02*
X146642857Y-57573866D01*
X146642857Y-57573866D02*
X146595238Y-57764342D01*
X146595238Y-57764342D02*
X146547619Y-57859580D01*
X146547619Y-57859580D02*
X146500000Y-57907200D01*
X146500000Y-57907200D02*
X146404762Y-57954819D01*
X146404762Y-57954819D02*
X146309524Y-57954819D01*
X146309524Y-57954819D02*
X146214286Y-57907200D01*
X146214286Y-57907200D02*
X146166667Y-57859580D01*
X146166667Y-57859580D02*
X146119048Y-57764342D01*
X146119048Y-57764342D02*
X146071429Y-57573866D01*
X146071429Y-57573866D02*
X146071429Y-57335771D01*
X146071429Y-57335771D02*
X146119048Y-57145295D01*
X146119048Y-57145295D02*
X146166667Y-57050057D01*
X146166667Y-57050057D02*
X146214286Y-57002438D01*
X146214286Y-57002438D02*
X146309524Y-56954819D01*
X120166666Y-27454819D02*
X120166666Y-28169104D01*
X120166666Y-28169104D02*
X120119047Y-28311961D01*
X120119047Y-28311961D02*
X120023809Y-28407200D01*
X120023809Y-28407200D02*
X119880952Y-28454819D01*
X119880952Y-28454819D02*
X119785714Y-28454819D01*
X121166666Y-28454819D02*
X120595238Y-28454819D01*
X120880952Y-28454819D02*
X120880952Y-27454819D01*
X120880952Y-27454819D02*
X120785714Y-27597676D01*
X120785714Y-27597676D02*
X120690476Y-27692914D01*
X120690476Y-27692914D02*
X120595238Y-27740533D01*
X34190476Y-62954819D02*
X34190476Y-63669104D01*
X34190476Y-63669104D02*
X34142857Y-63811961D01*
X34142857Y-63811961D02*
X34047619Y-63907200D01*
X34047619Y-63907200D02*
X33904762Y-63954819D01*
X33904762Y-63954819D02*
X33809524Y-63954819D01*
X34619048Y-63050057D02*
X34666667Y-63002438D01*
X34666667Y-63002438D02*
X34761905Y-62954819D01*
X34761905Y-62954819D02*
X35000000Y-62954819D01*
X35000000Y-62954819D02*
X35095238Y-63002438D01*
X35095238Y-63002438D02*
X35142857Y-63050057D01*
X35142857Y-63050057D02*
X35190476Y-63145295D01*
X35190476Y-63145295D02*
X35190476Y-63240533D01*
X35190476Y-63240533D02*
X35142857Y-63383390D01*
X35142857Y-63383390D02*
X34571429Y-63954819D01*
X34571429Y-63954819D02*
X35190476Y-63954819D01*
X36047619Y-62954819D02*
X35857143Y-62954819D01*
X35857143Y-62954819D02*
X35761905Y-63002438D01*
X35761905Y-63002438D02*
X35714286Y-63050057D01*
X35714286Y-63050057D02*
X35619048Y-63192914D01*
X35619048Y-63192914D02*
X35571429Y-63383390D01*
X35571429Y-63383390D02*
X35571429Y-63764342D01*
X35571429Y-63764342D02*
X35619048Y-63859580D01*
X35619048Y-63859580D02*
X35666667Y-63907200D01*
X35666667Y-63907200D02*
X35761905Y-63954819D01*
X35761905Y-63954819D02*
X35952381Y-63954819D01*
X35952381Y-63954819D02*
X36047619Y-63907200D01*
X36047619Y-63907200D02*
X36095238Y-63859580D01*
X36095238Y-63859580D02*
X36142857Y-63764342D01*
X36142857Y-63764342D02*
X36142857Y-63526247D01*
X36142857Y-63526247D02*
X36095238Y-63431009D01*
X36095238Y-63431009D02*
X36047619Y-63383390D01*
X36047619Y-63383390D02*
X35952381Y-63335771D01*
X35952381Y-63335771D02*
X35761905Y-63335771D01*
X35761905Y-63335771D02*
X35666667Y-63383390D01*
X35666667Y-63383390D02*
X35619048Y-63431009D01*
X35619048Y-63431009D02*
X35571429Y-63526247D01*
D10*
X160428571Y-50612100D02*
X161571429Y-50612100D01*
X161000000Y-51183528D02*
X161000000Y-50040671D01*
D13*
X118190476Y-75454819D02*
X118190476Y-76169104D01*
X118190476Y-76169104D02*
X118142857Y-76311961D01*
X118142857Y-76311961D02*
X118047619Y-76407200D01*
X118047619Y-76407200D02*
X117904762Y-76454819D01*
X117904762Y-76454819D02*
X117809524Y-76454819D01*
X118571429Y-75454819D02*
X119190476Y-75454819D01*
X119190476Y-75454819D02*
X118857143Y-75835771D01*
X118857143Y-75835771D02*
X119000000Y-75835771D01*
X119000000Y-75835771D02*
X119095238Y-75883390D01*
X119095238Y-75883390D02*
X119142857Y-75931009D01*
X119142857Y-75931009D02*
X119190476Y-76026247D01*
X119190476Y-76026247D02*
X119190476Y-76264342D01*
X119190476Y-76264342D02*
X119142857Y-76359580D01*
X119142857Y-76359580D02*
X119095238Y-76407200D01*
X119095238Y-76407200D02*
X119000000Y-76454819D01*
X119000000Y-76454819D02*
X118714286Y-76454819D01*
X118714286Y-76454819D02*
X118619048Y-76407200D01*
X118619048Y-76407200D02*
X118571429Y-76359580D01*
X120142857Y-76454819D02*
X119571429Y-76454819D01*
X119857143Y-76454819D02*
X119857143Y-75454819D01*
X119857143Y-75454819D02*
X119761905Y-75597676D01*
X119761905Y-75597676D02*
X119666667Y-75692914D01*
X119666667Y-75692914D02*
X119571429Y-75740533D01*
X52690476Y-53954819D02*
X52690476Y-54669104D01*
X52690476Y-54669104D02*
X52642857Y-54811961D01*
X52642857Y-54811961D02*
X52547619Y-54907200D01*
X52547619Y-54907200D02*
X52404762Y-54954819D01*
X52404762Y-54954819D02*
X52309524Y-54954819D01*
X53690476Y-54954819D02*
X53119048Y-54954819D01*
X53404762Y-54954819D02*
X53404762Y-53954819D01*
X53404762Y-53954819D02*
X53309524Y-54097676D01*
X53309524Y-54097676D02*
X53214286Y-54192914D01*
X53214286Y-54192914D02*
X53119048Y-54240533D01*
X54309524Y-53954819D02*
X54404762Y-53954819D01*
X54404762Y-53954819D02*
X54500000Y-54002438D01*
X54500000Y-54002438D02*
X54547619Y-54050057D01*
X54547619Y-54050057D02*
X54595238Y-54145295D01*
X54595238Y-54145295D02*
X54642857Y-54335771D01*
X54642857Y-54335771D02*
X54642857Y-54573866D01*
X54642857Y-54573866D02*
X54595238Y-54764342D01*
X54595238Y-54764342D02*
X54547619Y-54859580D01*
X54547619Y-54859580D02*
X54500000Y-54907200D01*
X54500000Y-54907200D02*
X54404762Y-54954819D01*
X54404762Y-54954819D02*
X54309524Y-54954819D01*
X54309524Y-54954819D02*
X54214286Y-54907200D01*
X54214286Y-54907200D02*
X54166667Y-54859580D01*
X54166667Y-54859580D02*
X54119048Y-54764342D01*
X54119048Y-54764342D02*
X54071429Y-54573866D01*
X54071429Y-54573866D02*
X54071429Y-54335771D01*
X54071429Y-54335771D02*
X54119048Y-54145295D01*
X54119048Y-54145295D02*
X54166667Y-54050057D01*
X54166667Y-54050057D02*
X54214286Y-54002438D01*
X54214286Y-54002438D02*
X54309524Y-53954819D01*
X119190476Y-33454819D02*
X119190476Y-34169104D01*
X119190476Y-34169104D02*
X119142857Y-34311961D01*
X119142857Y-34311961D02*
X119047619Y-34407200D01*
X119047619Y-34407200D02*
X118904762Y-34454819D01*
X118904762Y-34454819D02*
X118809524Y-34454819D01*
X120190476Y-34454819D02*
X119619048Y-34454819D01*
X119904762Y-34454819D02*
X119904762Y-33454819D01*
X119904762Y-33454819D02*
X119809524Y-33597676D01*
X119809524Y-33597676D02*
X119714286Y-33692914D01*
X119714286Y-33692914D02*
X119619048Y-33740533D01*
X121047619Y-33454819D02*
X120857143Y-33454819D01*
X120857143Y-33454819D02*
X120761905Y-33502438D01*
X120761905Y-33502438D02*
X120714286Y-33550057D01*
X120714286Y-33550057D02*
X120619048Y-33692914D01*
X120619048Y-33692914D02*
X120571429Y-33883390D01*
X120571429Y-33883390D02*
X120571429Y-34264342D01*
X120571429Y-34264342D02*
X120619048Y-34359580D01*
X120619048Y-34359580D02*
X120666667Y-34407200D01*
X120666667Y-34407200D02*
X120761905Y-34454819D01*
X120761905Y-34454819D02*
X120952381Y-34454819D01*
X120952381Y-34454819D02*
X121047619Y-34407200D01*
X121047619Y-34407200D02*
X121095238Y-34359580D01*
X121095238Y-34359580D02*
X121142857Y-34264342D01*
X121142857Y-34264342D02*
X121142857Y-34026247D01*
X121142857Y-34026247D02*
X121095238Y-33931009D01*
X121095238Y-33931009D02*
X121047619Y-33883390D01*
X121047619Y-33883390D02*
X120952381Y-33835771D01*
X120952381Y-33835771D02*
X120761905Y-33835771D01*
X120761905Y-33835771D02*
X120666667Y-33883390D01*
X120666667Y-33883390D02*
X120619048Y-33931009D01*
X120619048Y-33931009D02*
X120571429Y-34026247D01*
X86666666Y-42454819D02*
X86666666Y-43169104D01*
X86666666Y-43169104D02*
X86619047Y-43311961D01*
X86619047Y-43311961D02*
X86523809Y-43407200D01*
X86523809Y-43407200D02*
X86380952Y-43454819D01*
X86380952Y-43454819D02*
X86285714Y-43454819D01*
X87190476Y-43454819D02*
X87380952Y-43454819D01*
X87380952Y-43454819D02*
X87476190Y-43407200D01*
X87476190Y-43407200D02*
X87523809Y-43359580D01*
X87523809Y-43359580D02*
X87619047Y-43216723D01*
X87619047Y-43216723D02*
X87666666Y-43026247D01*
X87666666Y-43026247D02*
X87666666Y-42645295D01*
X87666666Y-42645295D02*
X87619047Y-42550057D01*
X87619047Y-42550057D02*
X87571428Y-42502438D01*
X87571428Y-42502438D02*
X87476190Y-42454819D01*
X87476190Y-42454819D02*
X87285714Y-42454819D01*
X87285714Y-42454819D02*
X87190476Y-42502438D01*
X87190476Y-42502438D02*
X87142857Y-42550057D01*
X87142857Y-42550057D02*
X87095238Y-42645295D01*
X87095238Y-42645295D02*
X87095238Y-42883390D01*
X87095238Y-42883390D02*
X87142857Y-42978628D01*
X87142857Y-42978628D02*
X87190476Y-43026247D01*
X87190476Y-43026247D02*
X87285714Y-43073866D01*
X87285714Y-43073866D02*
X87476190Y-43073866D01*
X87476190Y-43073866D02*
X87571428Y-43026247D01*
X87571428Y-43026247D02*
X87619047Y-42978628D01*
X87619047Y-42978628D02*
X87666666Y-42883390D01*
X51190476Y-101954819D02*
X51190476Y-102669104D01*
X51190476Y-102669104D02*
X51142857Y-102811961D01*
X51142857Y-102811961D02*
X51047619Y-102907200D01*
X51047619Y-102907200D02*
X50904762Y-102954819D01*
X50904762Y-102954819D02*
X50809524Y-102954819D01*
X51619048Y-102050057D02*
X51666667Y-102002438D01*
X51666667Y-102002438D02*
X51761905Y-101954819D01*
X51761905Y-101954819D02*
X52000000Y-101954819D01*
X52000000Y-101954819D02*
X52095238Y-102002438D01*
X52095238Y-102002438D02*
X52142857Y-102050057D01*
X52142857Y-102050057D02*
X52190476Y-102145295D01*
X52190476Y-102145295D02*
X52190476Y-102240533D01*
X52190476Y-102240533D02*
X52142857Y-102383390D01*
X52142857Y-102383390D02*
X51571429Y-102954819D01*
X51571429Y-102954819D02*
X52190476Y-102954819D01*
X52761905Y-102383390D02*
X52666667Y-102335771D01*
X52666667Y-102335771D02*
X52619048Y-102288152D01*
X52619048Y-102288152D02*
X52571429Y-102192914D01*
X52571429Y-102192914D02*
X52571429Y-102145295D01*
X52571429Y-102145295D02*
X52619048Y-102050057D01*
X52619048Y-102050057D02*
X52666667Y-102002438D01*
X52666667Y-102002438D02*
X52761905Y-101954819D01*
X52761905Y-101954819D02*
X52952381Y-101954819D01*
X52952381Y-101954819D02*
X53047619Y-102002438D01*
X53047619Y-102002438D02*
X53095238Y-102050057D01*
X53095238Y-102050057D02*
X53142857Y-102145295D01*
X53142857Y-102145295D02*
X53142857Y-102192914D01*
X53142857Y-102192914D02*
X53095238Y-102288152D01*
X53095238Y-102288152D02*
X53047619Y-102335771D01*
X53047619Y-102335771D02*
X52952381Y-102383390D01*
X52952381Y-102383390D02*
X52761905Y-102383390D01*
X52761905Y-102383390D02*
X52666667Y-102431009D01*
X52666667Y-102431009D02*
X52619048Y-102478628D01*
X52619048Y-102478628D02*
X52571429Y-102573866D01*
X52571429Y-102573866D02*
X52571429Y-102764342D01*
X52571429Y-102764342D02*
X52619048Y-102859580D01*
X52619048Y-102859580D02*
X52666667Y-102907200D01*
X52666667Y-102907200D02*
X52761905Y-102954819D01*
X52761905Y-102954819D02*
X52952381Y-102954819D01*
X52952381Y-102954819D02*
X53047619Y-102907200D01*
X53047619Y-102907200D02*
X53095238Y-102859580D01*
X53095238Y-102859580D02*
X53142857Y-102764342D01*
X53142857Y-102764342D02*
X53142857Y-102573866D01*
X53142857Y-102573866D02*
X53095238Y-102478628D01*
X53095238Y-102478628D02*
X53047619Y-102431009D01*
X53047619Y-102431009D02*
X52952381Y-102383390D01*
X36190476Y-31954819D02*
X36190476Y-32669104D01*
X36190476Y-32669104D02*
X36142857Y-32811961D01*
X36142857Y-32811961D02*
X36047619Y-32907200D01*
X36047619Y-32907200D02*
X35904762Y-32954819D01*
X35904762Y-32954819D02*
X35809524Y-32954819D01*
X36619048Y-32050057D02*
X36666667Y-32002438D01*
X36666667Y-32002438D02*
X36761905Y-31954819D01*
X36761905Y-31954819D02*
X37000000Y-31954819D01*
X37000000Y-31954819D02*
X37095238Y-32002438D01*
X37095238Y-32002438D02*
X37142857Y-32050057D01*
X37142857Y-32050057D02*
X37190476Y-32145295D01*
X37190476Y-32145295D02*
X37190476Y-32240533D01*
X37190476Y-32240533D02*
X37142857Y-32383390D01*
X37142857Y-32383390D02*
X36571429Y-32954819D01*
X36571429Y-32954819D02*
X37190476Y-32954819D01*
X37523810Y-31954819D02*
X38142857Y-31954819D01*
X38142857Y-31954819D02*
X37809524Y-32335771D01*
X37809524Y-32335771D02*
X37952381Y-32335771D01*
X37952381Y-32335771D02*
X38047619Y-32383390D01*
X38047619Y-32383390D02*
X38095238Y-32431009D01*
X38095238Y-32431009D02*
X38142857Y-32526247D01*
X38142857Y-32526247D02*
X38142857Y-32764342D01*
X38142857Y-32764342D02*
X38095238Y-32859580D01*
X38095238Y-32859580D02*
X38047619Y-32907200D01*
X38047619Y-32907200D02*
X37952381Y-32954819D01*
X37952381Y-32954819D02*
X37666667Y-32954819D01*
X37666667Y-32954819D02*
X37571429Y-32907200D01*
X37571429Y-32907200D02*
X37523810Y-32859580D01*
X142166666Y-63454819D02*
X142166666Y-64169104D01*
X142166666Y-64169104D02*
X142119047Y-64311961D01*
X142119047Y-64311961D02*
X142023809Y-64407200D01*
X142023809Y-64407200D02*
X141880952Y-64454819D01*
X141880952Y-64454819D02*
X141785714Y-64454819D01*
X143119047Y-63454819D02*
X142642857Y-63454819D01*
X142642857Y-63454819D02*
X142595238Y-63931009D01*
X142595238Y-63931009D02*
X142642857Y-63883390D01*
X142642857Y-63883390D02*
X142738095Y-63835771D01*
X142738095Y-63835771D02*
X142976190Y-63835771D01*
X142976190Y-63835771D02*
X143071428Y-63883390D01*
X143071428Y-63883390D02*
X143119047Y-63931009D01*
X143119047Y-63931009D02*
X143166666Y-64026247D01*
X143166666Y-64026247D02*
X143166666Y-64264342D01*
X143166666Y-64264342D02*
X143119047Y-64359580D01*
X143119047Y-64359580D02*
X143071428Y-64407200D01*
X143071428Y-64407200D02*
X142976190Y-64454819D01*
X142976190Y-64454819D02*
X142738095Y-64454819D01*
X142738095Y-64454819D02*
X142642857Y-64407200D01*
X142642857Y-64407200D02*
X142595238Y-64359580D01*
X142690476Y-33954819D02*
X142690476Y-34669104D01*
X142690476Y-34669104D02*
X142642857Y-34811961D01*
X142642857Y-34811961D02*
X142547619Y-34907200D01*
X142547619Y-34907200D02*
X142404762Y-34954819D01*
X142404762Y-34954819D02*
X142309524Y-34954819D01*
X143690476Y-34954819D02*
X143119048Y-34954819D01*
X143404762Y-34954819D02*
X143404762Y-33954819D01*
X143404762Y-33954819D02*
X143309524Y-34097676D01*
X143309524Y-34097676D02*
X143214286Y-34192914D01*
X143214286Y-34192914D02*
X143119048Y-34240533D01*
X144023810Y-33954819D02*
X144690476Y-33954819D01*
X144690476Y-33954819D02*
X144261905Y-34954819D01*
X51190476Y-61954819D02*
X51190476Y-62669104D01*
X51190476Y-62669104D02*
X51142857Y-62811961D01*
X51142857Y-62811961D02*
X51047619Y-62907200D01*
X51047619Y-62907200D02*
X50904762Y-62954819D01*
X50904762Y-62954819D02*
X50809524Y-62954819D01*
X51619048Y-62050057D02*
X51666667Y-62002438D01*
X51666667Y-62002438D02*
X51761905Y-61954819D01*
X51761905Y-61954819D02*
X52000000Y-61954819D01*
X52000000Y-61954819D02*
X52095238Y-62002438D01*
X52095238Y-62002438D02*
X52142857Y-62050057D01*
X52142857Y-62050057D02*
X52190476Y-62145295D01*
X52190476Y-62145295D02*
X52190476Y-62240533D01*
X52190476Y-62240533D02*
X52142857Y-62383390D01*
X52142857Y-62383390D02*
X51571429Y-62954819D01*
X51571429Y-62954819D02*
X52190476Y-62954819D01*
X52571429Y-62050057D02*
X52619048Y-62002438D01*
X52619048Y-62002438D02*
X52714286Y-61954819D01*
X52714286Y-61954819D02*
X52952381Y-61954819D01*
X52952381Y-61954819D02*
X53047619Y-62002438D01*
X53047619Y-62002438D02*
X53095238Y-62050057D01*
X53095238Y-62050057D02*
X53142857Y-62145295D01*
X53142857Y-62145295D02*
X53142857Y-62240533D01*
X53142857Y-62240533D02*
X53095238Y-62383390D01*
X53095238Y-62383390D02*
X52523810Y-62954819D01*
X52523810Y-62954819D02*
X53142857Y-62954819D01*
X142666666Y-27954819D02*
X142666666Y-28669104D01*
X142666666Y-28669104D02*
X142619047Y-28811961D01*
X142619047Y-28811961D02*
X142523809Y-28907200D01*
X142523809Y-28907200D02*
X142380952Y-28954819D01*
X142380952Y-28954819D02*
X142285714Y-28954819D01*
X143571428Y-28288152D02*
X143571428Y-28954819D01*
X143333333Y-27907200D02*
X143095238Y-28621485D01*
X143095238Y-28621485D02*
X143714285Y-28621485D01*
D10*
X126428571Y-36612100D02*
X127571429Y-36612100D01*
D13*
X34190476Y-36454819D02*
X34190476Y-37169104D01*
X34190476Y-37169104D02*
X34142857Y-37311961D01*
X34142857Y-37311961D02*
X34047619Y-37407200D01*
X34047619Y-37407200D02*
X33904762Y-37454819D01*
X33904762Y-37454819D02*
X33809524Y-37454819D01*
X34619048Y-36550057D02*
X34666667Y-36502438D01*
X34666667Y-36502438D02*
X34761905Y-36454819D01*
X34761905Y-36454819D02*
X35000000Y-36454819D01*
X35000000Y-36454819D02*
X35095238Y-36502438D01*
X35095238Y-36502438D02*
X35142857Y-36550057D01*
X35142857Y-36550057D02*
X35190476Y-36645295D01*
X35190476Y-36645295D02*
X35190476Y-36740533D01*
X35190476Y-36740533D02*
X35142857Y-36883390D01*
X35142857Y-36883390D02*
X34571429Y-37454819D01*
X34571429Y-37454819D02*
X35190476Y-37454819D01*
X36095238Y-36454819D02*
X35619048Y-36454819D01*
X35619048Y-36454819D02*
X35571429Y-36931009D01*
X35571429Y-36931009D02*
X35619048Y-36883390D01*
X35619048Y-36883390D02*
X35714286Y-36835771D01*
X35714286Y-36835771D02*
X35952381Y-36835771D01*
X35952381Y-36835771D02*
X36047619Y-36883390D01*
X36047619Y-36883390D02*
X36095238Y-36931009D01*
X36095238Y-36931009D02*
X36142857Y-37026247D01*
X36142857Y-37026247D02*
X36142857Y-37264342D01*
X36142857Y-37264342D02*
X36095238Y-37359580D01*
X36095238Y-37359580D02*
X36047619Y-37407200D01*
X36047619Y-37407200D02*
X35952381Y-37454819D01*
X35952381Y-37454819D02*
X35714286Y-37454819D01*
X35714286Y-37454819D02*
X35619048Y-37407200D01*
X35619048Y-37407200D02*
X35571429Y-37359580D01*
X79190476Y-45454819D02*
X79190476Y-46169104D01*
X79190476Y-46169104D02*
X79142857Y-46311961D01*
X79142857Y-46311961D02*
X79047619Y-46407200D01*
X79047619Y-46407200D02*
X78904762Y-46454819D01*
X78904762Y-46454819D02*
X78809524Y-46454819D01*
X80190476Y-46454819D02*
X79619048Y-46454819D01*
X79904762Y-46454819D02*
X79904762Y-45454819D01*
X79904762Y-45454819D02*
X79809524Y-45597676D01*
X79809524Y-45597676D02*
X79714286Y-45692914D01*
X79714286Y-45692914D02*
X79619048Y-45740533D01*
X81047619Y-45788152D02*
X81047619Y-46454819D01*
X80809524Y-45407200D02*
X80571429Y-46121485D01*
X80571429Y-46121485D02*
X81190476Y-46121485D01*
M02*
