%TF.GenerationSoftware,KiCad,Pcbnew,9.0.0*%
%TF.CreationDate,2025-03-20T17:17:02+01:00*%
%TF.ProjectId,DMW-BLJ31-charger,444d572d-424c-44a3-9331-2d6368617267,rev?*%
%TF.SameCoordinates,Original*%
%TF.FileFunction,Copper,L2,Bot*%
%TF.FilePolarity,Positive*%
%FSLAX46Y46*%
G04 Gerber Fmt 4.6, Leading zero omitted, Abs format (unit mm)*
G04 Created by KiCad (PCBNEW 9.0.0) date 2025-03-20 17:17:02*
%MOMM*%
%LPD*%
G01*
G04 APERTURE LIST*
G04 Aperture macros list*
%AMRoundRect*
0 Rectangle with rounded corners*
0 $1 Rounding radius*
0 $2 $3 $4 $5 $6 $7 $8 $9 X,Y pos of 4 corners*
0 Add a 4 corners polygon primitive as box body*
4,1,4,$2,$3,$4,$5,$6,$7,$8,$9,$2,$3,0*
0 Add four circle primitives for the rounded corners*
1,1,$1+$1,$2,$3*
1,1,$1+$1,$4,$5*
1,1,$1+$1,$6,$7*
1,1,$1+$1,$8,$9*
0 Add four rect primitives between the rounded corners*
20,1,$1+$1,$2,$3,$4,$5,0*
20,1,$1+$1,$4,$5,$6,$7,0*
20,1,$1+$1,$6,$7,$8,$9,0*
20,1,$1+$1,$8,$9,$2,$3,0*%
G04 Aperture macros list end*
%TA.AperFunction,ComponentPad*%
%ADD10RoundRect,0.250000X-0.675000X-0.675000X0.675000X-0.675000X0.675000X0.675000X-0.675000X0.675000X0*%
%TD*%
%TA.AperFunction,ComponentPad*%
%ADD11RoundRect,0.250000X0.675000X-0.675000X0.675000X0.675000X-0.675000X0.675000X-0.675000X-0.675000X0*%
%TD*%
%TA.AperFunction,ComponentPad*%
%ADD12RoundRect,0.250000X-0.675000X0.675000X-0.675000X-0.675000X0.675000X-0.675000X0.675000X0.675000X0*%
%TD*%
%TA.AperFunction,ViaPad*%
%ADD13C,0.600000*%
%TD*%
%TA.AperFunction,Conductor*%
%ADD14C,1.000000*%
%TD*%
G04 APERTURE END LIST*
D10*
%TO.P,J11,1,Pin_1*%
%TO.N,Net-(J1-Pin_1)*%
X120500000Y-46000000D03*
%TD*%
D11*
%TO.P,J40,1,Pin_1*%
%TO.N,unconnected-(J40-Pin_1-Pad1)*%
X131000000Y-28000000D03*
%TD*%
D10*
%TO.P,J8,1,Pin_1*%
%TO.N,Net-(J7-Pin_1)*%
X87000000Y-55500000D03*
%TD*%
%TO.P,J21,1,Pin_1*%
%TO.N,unconnected-(J21-Pin_1-Pad1)*%
X39000000Y-61000000D03*
%TD*%
%TO.P,J35,1,Pin_1*%
%TO.N,unconnected-(J35-Pin_1-Pad1)*%
X151500000Y-144000000D03*
%TD*%
%TO.P,J18,1,Pin_1*%
%TO.N,Net-(J13-Pin_1)*%
X141500000Y-59500000D03*
%TD*%
%TO.P,J24,1,Pin_1*%
%TO.N,unconnected-(J24-Pin_1-Pad1)*%
X49000000Y-35000000D03*
%TD*%
%TO.P,J20,1,Pin_1*%
%TO.N,Net-(J13-Pin_1)*%
X125500000Y-43000000D03*
%TD*%
%TO.P,J13,1,Pin_1*%
%TO.N,Net-(J13-Pin_1)*%
X83500000Y-50000000D03*
%TD*%
%TO.P,J7,1,Pin_1*%
%TO.N,Net-(J7-Pin_1)*%
X50000000Y-40500000D03*
%TD*%
%TO.P,J12,1,Pin_1*%
%TO.N,Net-(J12-Pin_1)*%
X120500000Y-50000000D03*
%TD*%
D12*
%TO.P,J45,1,Pin_1*%
%TO.N,unconnected-(J45-Pin_1-Pad1)*%
X29500000Y-28000000D03*
%TD*%
%TO.P,J43,1,Pin_1*%
%TO.N,unconnected-(J43-Pin_1-Pad1)*%
X29500000Y-68000000D03*
%TD*%
D10*
%TO.P,J29,1,Pin_1*%
%TO.N,unconnected-(J29-Pin_1-Pad1)*%
X149500000Y-36500000D03*
%TD*%
%TO.P,J34,1,Pin_1*%
%TO.N,unconnected-(J34-Pin_1-Pad1)*%
X128500000Y-144500000D03*
%TD*%
%TO.P,J15,1,Pin_1*%
%TO.N,Net-(J13-Pin_1)*%
X122000000Y-59500000D03*
%TD*%
%TO.P,J6,1,Pin_1*%
%TO.N,Net-(J12-Pin_1)*%
X122000000Y-66000000D03*
%TD*%
%TO.P,J27,1,Pin_1*%
%TO.N,unconnected-(J27-Pin_1-Pad1)*%
X49000000Y-78000000D03*
%TD*%
%TO.P,J32,1,Pin_1*%
%TO.N,unconnected-(J32-Pin_1-Pad1)*%
X122000000Y-104000000D03*
%TD*%
%TO.P,J2,1,Pin_1*%
%TO.N,Net-(J12-Pin_1)*%
X162500000Y-62000000D03*
%TD*%
D12*
%TO.P,J37,1,Pin_1*%
%TO.N,unconnected-(J37-Pin_1-Pad1)*%
X131000000Y-71000000D03*
%TD*%
D10*
%TO.P,J30,1,Pin_1*%
%TO.N,unconnected-(J30-Pin_1-Pad1)*%
X149500000Y-59500000D03*
%TD*%
%TO.P,J1,1,Pin_1*%
%TO.N,Net-(J1-Pin_1)*%
X122000000Y-30500000D03*
%TD*%
%TO.P,J26,1,Pin_1*%
%TO.N,unconnected-(J26-Pin_1-Pad1)*%
X31000000Y-61000000D03*
%TD*%
%TO.P,J3,1,Pin_1*%
%TO.N,Net-(J1-Pin_1)*%
X162500000Y-53000000D03*
%TD*%
%TO.P,J31,1,Pin_1*%
%TO.N,unconnected-(J31-Pin_1-Pad1)*%
X122000000Y-78000000D03*
%TD*%
%TO.P,J10,1,Pin_1*%
%TO.N,Net-(J10-Pin_1)*%
X50000000Y-55500000D03*
%TD*%
D11*
%TO.P,J38,1,Pin_1*%
%TO.N,unconnected-(J38-Pin_1-Pad1)*%
X157000000Y-28000000D03*
%TD*%
%TO.P,J46,1,Pin_1*%
%TO.N,unconnected-(J46-Pin_1-Pad1)*%
X44500000Y-28000000D03*
%TD*%
%TO.P,J44,1,Pin_1*%
%TO.N,unconnected-(J44-Pin_1-Pad1)*%
X44500000Y-68000000D03*
%TD*%
D10*
%TO.P,J16,1,Pin_1*%
%TO.N,Net-(J14-Pin_1)*%
X122000000Y-36500000D03*
%TD*%
%TO.P,J9,1,Pin_1*%
%TO.N,Net-(J10-Pin_1)*%
X87000000Y-40500000D03*
%TD*%
%TO.P,J48,1,Pin_1*%
%TO.N,unconnected-(J48-Pin_1-Pad1)*%
X55500000Y-139000000D03*
%TD*%
%TO.P,J28,1,Pin_1*%
%TO.N,unconnected-(J28-Pin_1-Pad1)*%
X49000000Y-104000000D03*
%TD*%
%TO.P,J23,1,Pin_1*%
%TO.N,unconnected-(J23-Pin_1-Pad1)*%
X39000000Y-35000000D03*
%TD*%
%TO.P,J5,1,Pin_1*%
%TO.N,Net-(J12-Pin_1)*%
X141500000Y-66000000D03*
%TD*%
%TO.P,J47,1,Pin_1*%
%TO.N,unconnected-(J47-Pin_1-Pad1)*%
X55500000Y-124000000D03*
%TD*%
D11*
%TO.P,J41,1,Pin_1*%
%TO.N,unconnected-(J41-Pin_1-Pad1)*%
X157000000Y-68000000D03*
%TD*%
%TO.P,J39,1,Pin_1*%
%TO.N,unconnected-(J39-Pin_1-Pad1)*%
X157000000Y-71000000D03*
%TD*%
D10*
%TO.P,J17,1,Pin_1*%
%TO.N,Net-(J14-Pin_1)*%
X141500000Y-36500000D03*
%TD*%
D11*
%TO.P,J36,1,Pin_1*%
%TO.N,unconnected-(J36-Pin_1-Pad1)*%
X136500000Y-144000000D03*
%TD*%
D10*
%TO.P,J22,1,Pin_1*%
%TO.N,unconnected-(J22-Pin_1-Pad1)*%
X49000000Y-61000000D03*
%TD*%
%TO.P,J4,1,Pin_1*%
%TO.N,Net-(J1-Pin_1)*%
X141500000Y-30500000D03*
%TD*%
%TO.P,J19,1,Pin_1*%
%TO.N,Net-(J14-Pin_1)*%
X125500000Y-34000000D03*
%TD*%
%TO.P,J25,1,Pin_1*%
%TO.N,unconnected-(J25-Pin_1-Pad1)*%
X31000000Y-35000000D03*
%TD*%
D11*
%TO.P,J42,1,Pin_1*%
%TO.N,unconnected-(J42-Pin_1-Pad1)*%
X131000000Y-68000000D03*
%TD*%
D10*
%TO.P,J14,1,Pin_1*%
%TO.N,Net-(J14-Pin_1)*%
X83500000Y-46000000D03*
%TD*%
%TO.P,J33,1,Pin_1*%
%TO.N,unconnected-(J33-Pin_1-Pad1)*%
X128500000Y-118500000D03*
%TD*%
D13*
%TO.N,Net-(J10-Pin_1)*%
X73000000Y-43500000D03*
X50000000Y-55500000D03*
%TO.N,Net-(J1-Pin_1)*%
X108500000Y-35000000D03*
%TO.N,Net-(J12-Pin_1)*%
X108500000Y-63000000D03*
%TD*%
D14*
%TO.N,Net-(J10-Pin_1)*%
X61000000Y-55500000D02*
X50000000Y-55500000D01*
X73000000Y-43500000D02*
X61000000Y-55500000D01*
%TO.N,Net-(J1-Pin_1)*%
X112000000Y-46000000D02*
X120500000Y-46000000D01*
X108500000Y-42500000D02*
X112000000Y-46000000D01*
X108500000Y-35000000D02*
X108500000Y-42500000D01*
%TO.N,Net-(J12-Pin_1)*%
X108500000Y-53500000D02*
X112000000Y-50000000D01*
X112000000Y-50000000D02*
X120500000Y-50000000D01*
X108500000Y-63000000D02*
X108500000Y-53500000D01*
%TD*%
M02*
