M48
; DRILL file {KiCad 9.0.0} date 2025-03-21T15:29:24+0100
; FORMAT={-:-/ absolute / metric / decimal}
; #@! TF.CreationDate,2025-03-21T15:29:24+01:00
; #@! TF.GenerationSoftware,Kicad,Pcbnew,9.0.0
; #@! TF.FileFunction,Plated,1,2,PTH
FMAT,2
METRIC
; #@! TA.AperFunction,Plated,PTH,ViaDrill
T1C0.300
; #@! TA.AperFunction,Plated,PTH,ComponentDrill
T2C0.850
%
G90
G05
T1
X55.0Y-35.0
X55.0Y-40.0
X55.0Y-45.0
X55.0Y-50.0
X55.0Y-55.0
X55.0Y-60.0
X55.0Y-65.0
X60.0Y-35.0
X60.0Y-40.0
X60.0Y-45.0
X60.0Y-50.0
X60.0Y-55.0
X60.0Y-60.0
X60.0Y-65.0
X60.0Y-80.0
X60.0Y-85.0
X60.0Y-90.0
X60.0Y-95.0
X60.0Y-100.0
X65.0Y-35.0
X65.0Y-40.0
X65.0Y-45.0
X65.0Y-50.0
X65.0Y-55.0
X65.0Y-60.0
X65.0Y-65.0
X65.0Y-80.0
X65.0Y-85.0
X65.0Y-90.0
X65.0Y-95.0
X65.0Y-100.0
X70.0Y-35.0
X70.0Y-40.0
X70.0Y-45.0
X70.0Y-50.0
X70.0Y-55.0
X70.0Y-60.0
X70.0Y-65.0
X70.0Y-80.0
X70.0Y-85.0
X70.0Y-90.0
X70.0Y-95.0
X70.0Y-100.0
X75.0Y-35.0
X75.0Y-40.0
X75.0Y-45.0
X75.0Y-50.0
X75.0Y-55.0
X75.0Y-60.0
X75.0Y-65.0
X75.0Y-80.0
X75.0Y-85.0
X75.0Y-90.0
X75.0Y-95.0
X80.0Y-35.0
X80.0Y-40.0
X80.0Y-55.0
X80.0Y-60.0
X80.0Y-65.0
X80.0Y-80.0
X80.0Y-85.0
X80.0Y-90.0
X80.0Y-95.0
X90.0Y-80.0
X90.0Y-85.0
X90.0Y-90.0
X90.0Y-95.0
X90.0Y-100.0
X90.0Y-105.0
X90.0Y-110.0
X95.0Y-35.0
X95.0Y-40.0
X95.0Y-45.0
X95.0Y-80.0
X95.0Y-85.0
X95.0Y-90.0
X95.0Y-95.0
X95.0Y-100.0
X95.0Y-105.0
X95.0Y-110.0
X100.0Y-35.0
X100.0Y-40.0
X100.0Y-45.0
X100.0Y-50.0
X100.0Y-80.0
X100.0Y-85.0
X100.0Y-90.0
X100.0Y-95.0
X100.0Y-100.0
X100.0Y-105.0
X100.0Y-110.0
X105.0Y-35.0
X105.0Y-40.0
X105.0Y-45.0
X105.0Y-50.0
X105.0Y-55.0
X105.0Y-80.0
X105.0Y-85.0
X105.0Y-90.0
X105.0Y-95.0
X105.0Y-100.0
X105.0Y-105.0
X105.0Y-110.0
X110.0Y-35.0
X110.0Y-40.0
X110.0Y-45.0
X110.0Y-50.0
X110.0Y-80.0
X110.0Y-85.0
X110.0Y-90.0
X110.0Y-95.0
X110.0Y-100.0
X110.0Y-105.0
X110.0Y-110.0
X115.0Y-35.0
X115.0Y-40.0
X115.0Y-45.0
X115.0Y-50.0
X115.0Y-80.0
X115.0Y-85.0
X115.0Y-90.0
X115.0Y-95.0
X115.0Y-100.0
X115.0Y-105.0
X115.0Y-110.0
X156.5Y-53.0
T2
X27.5Y-27.5
X27.5Y-68.5
X29.5Y-35.0
X29.5Y-61.0
X37.5Y-35.0
X37.5Y-61.0
X42.5Y-27.5
X42.5Y-68.5
X49.0Y-35.0
X49.0Y-61.0
X49.0Y-80.5
X49.0Y-106.5
X50.0Y-40.5
X50.0Y-55.5
X55.5Y-126.5
X55.5Y-141.5
X83.5Y-45.5
X83.5Y-50.5
X87.0Y-86.0
X87.0Y-101.0
X120.5Y-91.0
X120.5Y-96.0
X122.0Y-35.0
X122.0Y-61.0
X122.0Y-80.5
X122.0Y-106.5
X129.0Y-34.0
X129.0Y-43.0
X129.0Y-121.0
X129.0Y-147.0
X131.0Y-73.0
X134.5Y-27.5
X134.5Y-68.5
X136.5Y-146.5
X145.0Y-35.0
X145.0Y-61.0
X151.5Y-146.5
X153.0Y-35.0
X153.0Y-61.0
X157.0Y-73.0
X160.5Y-27.5
X160.5Y-68.5
X166.0Y-53.0
X166.0Y-62.0
M30
