%TF.GenerationSoftware,KiCad,Pcbnew,9.0.0*%
%TF.CreationDate,2025-03-21T15:29:29+01:00*%
%TF.ProjectId,DMW-BLJ31-charger,444d572d-424c-44a3-9331-2d6368617267,rev?*%
%TF.SameCoordinates,Original*%
%TF.FileFunction,Soldermask,Top*%
%TF.FilePolarity,Negative*%
%FSLAX46Y46*%
G04 Gerber Fmt 4.6, Leading zero omitted, Abs format (unit mm)*
G04 Created by KiCad (PCBNEW 9.0.0) date 2025-03-21 15:29:29*
%MOMM*%
%LPD*%
G01*
G04 APERTURE LIST*
G04 Aperture macros list*
%AMRoundRect*
0 Rectangle with rounded corners*
0 $1 Rounding radius*
0 $2 $3 $4 $5 $6 $7 $8 $9 X,Y pos of 4 corners*
0 Add a 4 corners polygon primitive as box body*
4,1,4,$2,$3,$4,$5,$6,$7,$8,$9,$2,$3,0*
0 Add four circle primitives for the rounded corners*
1,1,$1+$1,$2,$3*
1,1,$1+$1,$4,$5*
1,1,$1+$1,$6,$7*
1,1,$1+$1,$8,$9*
0 Add four rect primitives between the rounded corners*
20,1,$1+$1,$2,$3,$4,$5,0*
20,1,$1+$1,$4,$5,$6,$7,0*
20,1,$1+$1,$6,$7,$8,$9,0*
20,1,$1+$1,$8,$9,$2,$3,0*%
G04 Aperture macros list end*
%ADD10RoundRect,0.250000X0.675000X-0.675000X0.675000X0.675000X-0.675000X0.675000X-0.675000X-0.675000X0*%
%ADD11RoundRect,0.250000X-0.675000X-0.675000X0.675000X-0.675000X0.675000X0.675000X-0.675000X0.675000X0*%
%ADD12RoundRect,0.250000X-0.675000X0.675000X-0.675000X-0.675000X0.675000X-0.675000X0.675000X0.675000X0*%
G04 APERTURE END LIST*
D10*
%TO.C,J12*%
X134500000Y-27500000D03*
%TD*%
D11*
%TO.C,J30*%
X87000000Y-101000000D03*
%TD*%
%TO.C,J38*%
X37500000Y-61000000D03*
%TD*%
%TO.C,J7*%
X151500000Y-146500000D03*
%TD*%
%TO.C,J27*%
X145000000Y-61000000D03*
%TD*%
%TO.C,J34*%
X49000000Y-35000000D03*
%TD*%
%TO.C,J26*%
X129000000Y-43000000D03*
%TD*%
%TO.C,J25*%
X83500000Y-50500000D03*
%TD*%
%TO.C,J29*%
X50000000Y-40500000D03*
%TD*%
D12*
%TO.C,J17*%
X27500000Y-27500000D03*
%TD*%
%TO.C,J15*%
X27500000Y-68500000D03*
%TD*%
D11*
%TO.C,J6*%
X129000000Y-147000000D03*
%TD*%
%TO.C,J28*%
X122000000Y-61000000D03*
%TD*%
%TO.C,J37*%
X122000000Y-106500000D03*
%TD*%
%TO.C,J41*%
X49000000Y-80500000D03*
%TD*%
%TO.C,J46*%
X166000000Y-62000000D03*
%TD*%
D12*
%TO.C,J9*%
X131000000Y-73000000D03*
%TD*%
D11*
%TO.C,J48*%
X120500000Y-96000000D03*
%TD*%
%TO.C,J42*%
X122000000Y-80500000D03*
%TD*%
%TO.C,J40*%
X29500000Y-61000000D03*
%TD*%
%TO.C,J44*%
X166000000Y-53000000D03*
%TD*%
%TO.C,J36*%
X50000000Y-55500000D03*
%TD*%
D10*
%TO.C,J10*%
X160500000Y-27500000D03*
%TD*%
%TO.C,J18*%
X42500000Y-27500000D03*
%TD*%
%TO.C,J16*%
X42500000Y-68500000D03*
%TD*%
D11*
%TO.C,J21*%
X122000000Y-35000000D03*
%TD*%
%TO.C,J35*%
X87000000Y-86000000D03*
%TD*%
%TO.C,J20*%
X55500000Y-141500000D03*
%TD*%
%TO.C,J32*%
X49000000Y-106500000D03*
%TD*%
%TO.C,J33*%
X37500000Y-35000000D03*
%TD*%
%TO.C,J47*%
X153000000Y-35000000D03*
%TD*%
%TO.C,J19*%
X55500000Y-126500000D03*
%TD*%
D10*
%TO.C,J13*%
X160500000Y-68500000D03*
%TD*%
%TO.C,J11*%
X157000000Y-73000000D03*
%TD*%
D11*
%TO.C,J22*%
X145000000Y-35000000D03*
%TD*%
D10*
%TO.C,J8*%
X136500000Y-146500000D03*
%TD*%
D11*
%TO.C,J39*%
X49000000Y-61000000D03*
%TD*%
%TO.C,J45*%
X153000000Y-61000000D03*
%TD*%
%TO.C,J23*%
X129000000Y-34000000D03*
%TD*%
%TO.C,J31*%
X29500000Y-35000000D03*
%TD*%
D10*
%TO.C,J14*%
X134500000Y-68500000D03*
%TD*%
D11*
%TO.C,J24*%
X83500000Y-45500000D03*
%TD*%
%TO.C,J43*%
X120500000Y-91000000D03*
%TD*%
%TO.C,J5*%
X129000000Y-121000000D03*
%TD*%
M02*
