%TF.GenerationSoftware,KiCad,Pcbnew,9.0.0*%
%TF.CreationDate,2025-03-21T12:09:41+01:00*%
%TF.ProjectId,DMW-BLJ31-charger,444d572d-424c-44a3-9331-2d6368617267,rev?*%
%TF.SameCoordinates,Original*%
%TF.FileFunction,Copper,L1,Top*%
%TF.FilePolarity,Positive*%
%FSLAX46Y46*%
G04 Gerber Fmt 4.6, Leading zero omitted, Abs format (unit mm)*
G04 Created by KiCad (PCBNEW 9.0.0) date 2025-03-21 12:09:41*
%MOMM*%
%LPD*%
G01*
G04 APERTURE LIST*
G04 Aperture macros list*
%AMRoundRect*
0 Rectangle with rounded corners*
0 $1 Rounding radius*
0 $2 $3 $4 $5 $6 $7 $8 $9 X,Y pos of 4 corners*
0 Add a 4 corners polygon primitive as box body*
4,1,4,$2,$3,$4,$5,$6,$7,$8,$9,$2,$3,0*
0 Add four circle primitives for the rounded corners*
1,1,$1+$1,$2,$3*
1,1,$1+$1,$4,$5*
1,1,$1+$1,$6,$7*
1,1,$1+$1,$8,$9*
0 Add four rect primitives between the rounded corners*
20,1,$1+$1,$2,$3,$4,$5,0*
20,1,$1+$1,$4,$5,$6,$7,0*
20,1,$1+$1,$6,$7,$8,$9,0*
20,1,$1+$1,$8,$9,$2,$3,0*%
G04 Aperture macros list end*
%TA.AperFunction,ComponentPad*%
%ADD10RoundRect,0.250000X-0.675000X-0.675000X0.675000X-0.675000X0.675000X0.675000X-0.675000X0.675000X0*%
%TD*%
%TA.AperFunction,ComponentPad*%
%ADD11RoundRect,0.250000X0.675000X-0.675000X0.675000X0.675000X-0.675000X0.675000X-0.675000X-0.675000X0*%
%TD*%
%TA.AperFunction,ComponentPad*%
%ADD12RoundRect,0.250000X-0.675000X0.675000X-0.675000X-0.675000X0.675000X-0.675000X0.675000X0.675000X0*%
%TD*%
%TA.AperFunction,ViaPad*%
%ADD13C,0.600000*%
%TD*%
%TA.AperFunction,Conductor*%
%ADD14C,1.000000*%
%TD*%
G04 APERTURE END LIST*
D10*
%TO.P,J48,1,Pin_1*%
%TO.N,GND*%
X120500000Y-95500000D03*
%TD*%
D11*
%TO.P,J12,1,Pin_1*%
%TO.N,unconnected-(J12-Pin_1-Pad1)*%
X131000000Y-27500000D03*
%TD*%
D10*
%TO.P,J30,1,Pin_1*%
%TO.N,Net-(J29-Pin_1)*%
X87000000Y-101000000D03*
%TD*%
%TO.P,J38,1,Pin_1*%
%TO.N,GND*%
X39500000Y-61000000D03*
%TD*%
%TO.P,J7,1,Pin_1*%
%TO.N,unconnected-(J7-Pin_1-Pad1)*%
X151500000Y-146500000D03*
%TD*%
%TO.P,J27,1,Pin_1*%
%TO.N,Net-(J25-Pin_1)*%
X141500000Y-61000000D03*
%TD*%
%TO.P,J34,1,Pin_1*%
%TO.N,Net-(J29-Pin_1)*%
X49000000Y-35000000D03*
%TD*%
%TO.P,J26,1,Pin_1*%
%TO.N,Net-(J25-Pin_1)*%
X125500000Y-43000000D03*
%TD*%
%TO.P,J25,1,Pin_1*%
%TO.N,Net-(J25-Pin_1)*%
X83500000Y-50000000D03*
%TD*%
%TO.P,J29,1,Pin_1*%
%TO.N,Net-(J29-Pin_1)*%
X50000000Y-40500000D03*
%TD*%
D12*
%TO.P,J17,1,Pin_1*%
%TO.N,unconnected-(J17-Pin_1-Pad1)*%
X29500000Y-27500000D03*
%TD*%
%TO.P,J15,1,Pin_1*%
%TO.N,unconnected-(J15-Pin_1-Pad1)*%
X29500000Y-68500000D03*
%TD*%
D10*
%TO.P,J6,1,Pin_1*%
%TO.N,unconnected-(J6-Pin_1-Pad1)*%
X129000000Y-147000000D03*
%TD*%
%TO.P,J28,1,Pin_1*%
%TO.N,Net-(J25-Pin_1)*%
X122000000Y-61000000D03*
%TD*%
%TO.P,J37,1,Pin_1*%
%TO.N,GND*%
X122000000Y-106500000D03*
%TD*%
%TO.P,J41,1,Pin_1*%
%TO.N,GND*%
X49000000Y-80500000D03*
%TD*%
%TO.P,J46,1,Pin_1*%
%TO.N,GND*%
X162500000Y-62000000D03*
%TD*%
D12*
%TO.P,J9,1,Pin_1*%
%TO.N,unconnected-(J9-Pin_1-Pad1)*%
X131000000Y-73000000D03*
%TD*%
D10*
%TO.P,J42,1,Pin_1*%
%TO.N,Net-(J42-Pin_1)*%
X122000000Y-80500000D03*
%TD*%
%TO.P,J40,1,Pin_1*%
%TO.N,GND*%
X31500000Y-61000000D03*
%TD*%
%TO.P,J44,1,Pin_1*%
%TO.N,Net-(J42-Pin_1)*%
X162500000Y-53000000D03*
%TD*%
%TO.P,J36,1,Pin_1*%
%TO.N,GND*%
X50000000Y-55500000D03*
%TD*%
D11*
%TO.P,J10,1,Pin_1*%
%TO.N,unconnected-(J10-Pin_1-Pad1)*%
X157000000Y-27500000D03*
%TD*%
%TO.P,J18,1,Pin_1*%
%TO.N,unconnected-(J18-Pin_1-Pad1)*%
X44500000Y-27500000D03*
%TD*%
%TO.P,J16,1,Pin_1*%
%TO.N,unconnected-(J16-Pin_1-Pad1)*%
X44500000Y-68500000D03*
%TD*%
D10*
%TO.P,J21,1,Pin_1*%
%TO.N,GND*%
X122000000Y-35000000D03*
%TD*%
%TO.P,J35,1,Pin_1*%
%TO.N,GND*%
X87000000Y-86000000D03*
%TD*%
%TO.P,J20,1,Pin_1*%
%TO.N,unconnected-(J20-Pin_1-Pad1)*%
X55500000Y-141500000D03*
%TD*%
%TO.P,J32,1,Pin_1*%
%TO.N,Net-(J29-Pin_1)*%
X49000000Y-106500000D03*
%TD*%
%TO.P,J33,1,Pin_1*%
%TO.N,Net-(J29-Pin_1)*%
X39500000Y-35000000D03*
%TD*%
%TO.P,J47,1,Pin_1*%
%TO.N,GND*%
X149500000Y-35000000D03*
%TD*%
%TO.P,J19,1,Pin_1*%
%TO.N,unconnected-(J19-Pin_1-Pad1)*%
X55500000Y-126500000D03*
%TD*%
D11*
%TO.P,J13,1,Pin_1*%
%TO.N,unconnected-(J13-Pin_1-Pad1)*%
X157000000Y-68500000D03*
%TD*%
%TO.P,J11,1,Pin_1*%
%TO.N,unconnected-(J11-Pin_1-Pad1)*%
X157000000Y-73000000D03*
%TD*%
D10*
%TO.P,J22,1,Pin_1*%
%TO.N,GND*%
X141500000Y-35000000D03*
%TD*%
D11*
%TO.P,J8,1,Pin_1*%
%TO.N,unconnected-(J8-Pin_1-Pad1)*%
X136500000Y-146500000D03*
%TD*%
D10*
%TO.P,J39,1,Pin_1*%
%TO.N,GND*%
X49000000Y-61000000D03*
%TD*%
%TO.P,J45,1,Pin_1*%
%TO.N,Net-(J42-Pin_1)*%
X149500000Y-61000000D03*
%TD*%
%TO.P,J23,1,Pin_1*%
%TO.N,GND*%
X125500000Y-34000000D03*
%TD*%
%TO.P,J31,1,Pin_1*%
%TO.N,Net-(J29-Pin_1)*%
X31500000Y-35000000D03*
%TD*%
D11*
%TO.P,J14,1,Pin_1*%
%TO.N,unconnected-(J14-Pin_1-Pad1)*%
X131000000Y-68500000D03*
%TD*%
D10*
%TO.P,J24,1,Pin_1*%
%TO.N,GND*%
X83500000Y-46000000D03*
%TD*%
%TO.P,J43,1,Pin_1*%
%TO.N,Net-(J42-Pin_1)*%
X120500000Y-91500000D03*
%TD*%
%TO.P,J5,1,Pin_1*%
%TO.N,unconnected-(J5-Pin_1-Pad1)*%
X129000000Y-121000000D03*
%TD*%
D13*
%TO.N,Net-(J42-Pin_1)*%
X153000000Y-53000000D03*
%TD*%
D14*
%TO.N,Net-(J42-Pin_1)*%
X121500000Y-80500000D02*
X122000000Y-80500000D01*
X119000000Y-83000000D02*
X121500000Y-80500000D01*
%TO.N,Net-(J29-Pin_1)*%
X87000000Y-101500000D02*
X87000000Y-101000000D01*
X81500000Y-106500000D02*
X86500000Y-101500000D01*
%TO.N,GND*%
X140500000Y-34000000D02*
X141500000Y-35000000D01*
X125500000Y-34000000D02*
X140500000Y-34000000D01*
X162000000Y-62000000D02*
X156000000Y-56000000D01*
X156000000Y-56000000D02*
X156000000Y-38000000D01*
X162500000Y-62000000D02*
X162000000Y-62000000D01*
X156000000Y-38000000D02*
X153000000Y-35000000D01*
X153000000Y-35000000D02*
X149500000Y-35000000D01*
%TO.N,Net-(J42-Pin_1)*%
X149500000Y-56500000D02*
X153000000Y-53000000D01*
X149500000Y-61000000D02*
X149500000Y-56500000D01*
%TO.N,Net-(J25-Pin_1)*%
X132000000Y-43000000D02*
X125500000Y-43000000D01*
X134500000Y-45500000D02*
X132000000Y-43000000D01*
X138500000Y-61000000D02*
X134500000Y-57000000D01*
X141500000Y-61000000D02*
X138500000Y-61000000D01*
X134500000Y-57000000D02*
X134500000Y-45500000D01*
%TO.N,Net-(J42-Pin_1)*%
X120500000Y-91500000D02*
X119000000Y-90000000D01*
X119000000Y-90000000D02*
X119000000Y-83000000D01*
X120802792Y-91500000D02*
X120500000Y-91500000D01*
%TO.N,Net-(J29-Pin_1)*%
X81500000Y-106500000D02*
X49000000Y-106500000D01*
X87302792Y-101000000D02*
X87302792Y-101197208D01*
%TO.N,GND*%
X39500000Y-61000000D02*
X31500000Y-61000000D01*
%TO.N,Net-(J25-Pin_1)*%
X93000000Y-50000000D02*
X83500000Y-50000000D01*
X122000000Y-61000000D02*
X104000000Y-61000000D01*
X104000000Y-61000000D02*
X93000000Y-50000000D01*
%TO.N,Net-(J29-Pin_1)*%
X50000000Y-37500000D02*
X50000000Y-40500000D01*
X49000000Y-36500000D02*
X50000000Y-37500000D01*
X49000000Y-35000000D02*
X49000000Y-36500000D01*
X31500000Y-35000000D02*
X39500000Y-35000000D01*
%TD*%
%TA.AperFunction,Conductor*%
%TO.N,GND*%
G36*
X120504418Y-27500316D02*
G01*
X120775790Y-27519724D01*
X120793291Y-27522241D01*
X121054803Y-27579129D01*
X121071762Y-27584108D01*
X121322524Y-27677638D01*
X121338616Y-27684987D01*
X121573501Y-27813244D01*
X121588375Y-27822802D01*
X121802624Y-27983188D01*
X121815994Y-27994774D01*
X122005225Y-28184005D01*
X122016811Y-28197375D01*
X122177193Y-28411619D01*
X122186758Y-28426503D01*
X122315011Y-28661382D01*
X122322361Y-28677475D01*
X122415888Y-28928229D01*
X122420872Y-28945205D01*
X122477757Y-29206702D01*
X122480275Y-29224214D01*
X122499184Y-29488590D01*
X122499500Y-29497436D01*
X122499500Y-33451000D01*
X122479815Y-33518039D01*
X122427011Y-33563794D01*
X122375500Y-33575000D01*
X122250000Y-33575000D01*
X122250000Y-34653590D01*
X122164044Y-34603963D01*
X122055952Y-34575000D01*
X121944048Y-34575000D01*
X121835956Y-34603963D01*
X121750000Y-34653590D01*
X121750000Y-33575000D01*
X121275028Y-33575000D01*
X121275012Y-33575001D01*
X121172302Y-33585494D01*
X121005880Y-33640641D01*
X121005875Y-33640643D01*
X120856654Y-33732684D01*
X120732684Y-33856654D01*
X120640643Y-34005875D01*
X120640641Y-34005880D01*
X120585494Y-34172302D01*
X120585493Y-34172309D01*
X120575000Y-34275013D01*
X120575000Y-34750000D01*
X121653590Y-34750000D01*
X121603963Y-34835956D01*
X121575000Y-34944048D01*
X121575000Y-35055952D01*
X121603963Y-35164044D01*
X121653590Y-35250000D01*
X120575001Y-35250000D01*
X120575001Y-35724986D01*
X120585494Y-35827697D01*
X120640641Y-35994119D01*
X120640643Y-35994124D01*
X120732684Y-36143345D01*
X120856654Y-36267315D01*
X121005875Y-36359356D01*
X121005880Y-36359358D01*
X121172302Y-36414505D01*
X121172309Y-36414506D01*
X121275019Y-36424999D01*
X121749999Y-36424999D01*
X121750000Y-36424998D01*
X121750000Y-35346409D01*
X121835956Y-35396037D01*
X121944048Y-35425000D01*
X122055952Y-35425000D01*
X122164044Y-35396037D01*
X122250000Y-35346409D01*
X122250000Y-36424999D01*
X122375500Y-36424999D01*
X122442539Y-36444684D01*
X122488294Y-36497488D01*
X122499500Y-36548999D01*
X122499500Y-59450500D01*
X122479815Y-59517539D01*
X122427011Y-59563294D01*
X122375500Y-59574500D01*
X121274998Y-59574500D01*
X121274981Y-59574501D01*
X121172203Y-59585000D01*
X121172200Y-59585001D01*
X121005668Y-59640185D01*
X121005663Y-59640187D01*
X120856342Y-59732289D01*
X120732289Y-59856342D01*
X120680321Y-59940597D01*
X120628373Y-59987321D01*
X120574782Y-59999500D01*
X104465782Y-59999500D01*
X104398743Y-59979815D01*
X104378101Y-59963181D01*
X96349028Y-51934108D01*
X110999500Y-51934108D01*
X110999500Y-56065891D01*
X111033608Y-56193187D01*
X111051960Y-56224973D01*
X111099500Y-56307314D01*
X111192686Y-56400500D01*
X111306814Y-56466392D01*
X111434108Y-56500500D01*
X111434110Y-56500500D01*
X115565890Y-56500500D01*
X115565892Y-56500500D01*
X115693186Y-56466392D01*
X115807314Y-56400500D01*
X115900500Y-56307314D01*
X115966392Y-56193186D01*
X116000500Y-56065892D01*
X116000500Y-51934108D01*
X115966392Y-51806814D01*
X115900500Y-51692686D01*
X115807314Y-51599500D01*
X115750250Y-51566554D01*
X115693187Y-51533608D01*
X115629539Y-51516554D01*
X115565892Y-51499500D01*
X111565892Y-51499500D01*
X111434108Y-51499500D01*
X111306812Y-51533608D01*
X111192686Y-51599500D01*
X111192683Y-51599502D01*
X111099502Y-51692683D01*
X111099500Y-51692686D01*
X111033608Y-51806812D01*
X110999500Y-51934108D01*
X96349028Y-51934108D01*
X93781479Y-49366559D01*
X93781459Y-49366537D01*
X93637785Y-49222863D01*
X93637781Y-49222860D01*
X93473920Y-49113371D01*
X93473911Y-49113366D01*
X93353253Y-49063388D01*
X93353251Y-49063387D01*
X93345165Y-49060038D01*
X93291836Y-49037949D01*
X93129539Y-49005666D01*
X93114374Y-49002649D01*
X93098542Y-48999500D01*
X93098541Y-48999500D01*
X84925218Y-48999500D01*
X84858179Y-48979815D01*
X84819679Y-48940597D01*
X84767712Y-48856344D01*
X84643656Y-48732288D01*
X84494334Y-48640186D01*
X84327797Y-48585001D01*
X84327795Y-48585000D01*
X84225010Y-48574500D01*
X82774998Y-48574500D01*
X82774981Y-48574501D01*
X82672203Y-48585000D01*
X82672200Y-48585001D01*
X82505668Y-48640185D01*
X82505663Y-48640187D01*
X82356342Y-48732289D01*
X82232289Y-48856342D01*
X82140187Y-49005663D01*
X82140186Y-49005666D01*
X82085001Y-49172203D01*
X82085001Y-49172204D01*
X82085000Y-49172204D01*
X82074500Y-49274983D01*
X82074500Y-50725001D01*
X82074501Y-50725018D01*
X82085000Y-50827796D01*
X82085001Y-50827799D01*
X82140185Y-50994331D01*
X82140186Y-50994334D01*
X82232288Y-51143656D01*
X82356344Y-51267712D01*
X82505666Y-51359814D01*
X82672203Y-51414999D01*
X82774991Y-51425500D01*
X84225008Y-51425499D01*
X84327797Y-51414999D01*
X84494334Y-51359814D01*
X84643656Y-51267712D01*
X84767712Y-51143656D01*
X84819680Y-51059402D01*
X84871627Y-51012679D01*
X84925218Y-51000500D01*
X92534218Y-51000500D01*
X92601257Y-51020185D01*
X92621899Y-51036819D01*
X103219735Y-61634655D01*
X103219764Y-61634686D01*
X103362214Y-61777136D01*
X103362218Y-61777139D01*
X103526079Y-61886628D01*
X103526092Y-61886635D01*
X103654833Y-61939961D01*
X103697744Y-61957735D01*
X103708164Y-61962051D01*
X103804812Y-61981275D01*
X103853135Y-61990887D01*
X103901458Y-62000500D01*
X103901459Y-62000500D01*
X103901460Y-62000500D01*
X104098540Y-62000500D01*
X120574782Y-62000500D01*
X120641821Y-62020185D01*
X120680319Y-62059401D01*
X120732288Y-62143656D01*
X120856344Y-62267712D01*
X121005666Y-62359814D01*
X121172203Y-62414999D01*
X121274991Y-62425500D01*
X122375500Y-62425499D01*
X122442539Y-62445184D01*
X122488294Y-62497987D01*
X122499500Y-62549499D01*
X122499500Y-66502562D01*
X122499184Y-66511408D01*
X122480275Y-66775785D01*
X122477757Y-66793297D01*
X122420872Y-67054794D01*
X122415888Y-67071770D01*
X122322361Y-67322524D01*
X122315011Y-67338617D01*
X122186758Y-67573496D01*
X122177193Y-67588380D01*
X122016811Y-67802624D01*
X122005225Y-67815994D01*
X121815994Y-68005225D01*
X121802624Y-68016811D01*
X121588380Y-68177193D01*
X121573496Y-68186758D01*
X121338617Y-68315011D01*
X121322524Y-68322361D01*
X121071770Y-68415888D01*
X121054794Y-68420872D01*
X120793297Y-68477757D01*
X120775785Y-68480275D01*
X120504418Y-68499684D01*
X120495572Y-68500000D01*
X50504428Y-68500000D01*
X50495582Y-68499684D01*
X50224214Y-68480275D01*
X50206702Y-68477757D01*
X49945205Y-68420872D01*
X49928229Y-68415888D01*
X49677475Y-68322361D01*
X49661382Y-68315011D01*
X49426503Y-68186758D01*
X49411619Y-68177193D01*
X49197375Y-68016811D01*
X49184005Y-68005225D01*
X48994774Y-67815994D01*
X48983188Y-67802624D01*
X48822802Y-67588375D01*
X48813244Y-67573501D01*
X48684987Y-67338616D01*
X48677638Y-67322524D01*
X48584108Y-67071762D01*
X48579129Y-67054803D01*
X48522241Y-66793291D01*
X48519724Y-66775785D01*
X48500816Y-66511408D01*
X48500500Y-66502562D01*
X48500500Y-62548999D01*
X48520185Y-62481960D01*
X48572989Y-62436205D01*
X48624500Y-62424999D01*
X48750000Y-62424999D01*
X48750000Y-61346409D01*
X48835956Y-61396037D01*
X48944048Y-61425000D01*
X49055952Y-61425000D01*
X49164044Y-61396037D01*
X49250000Y-61346409D01*
X49250000Y-62424999D01*
X49724972Y-62424999D01*
X49724986Y-62424998D01*
X49827697Y-62414505D01*
X49994119Y-62359358D01*
X49994124Y-62359356D01*
X50143345Y-62267315D01*
X50267315Y-62143345D01*
X50359356Y-61994124D01*
X50359358Y-61994119D01*
X50414505Y-61827697D01*
X50414506Y-61827690D01*
X50424999Y-61724986D01*
X50425000Y-61724973D01*
X50425000Y-61250000D01*
X49346410Y-61250000D01*
X49396037Y-61164044D01*
X49425000Y-61055952D01*
X49425000Y-60944048D01*
X49396037Y-60835956D01*
X49346410Y-60750000D01*
X50424999Y-60750000D01*
X50424999Y-60275028D01*
X50424998Y-60275013D01*
X50414505Y-60172302D01*
X50359358Y-60005880D01*
X50359356Y-60005875D01*
X50267315Y-59856654D01*
X50143345Y-59732684D01*
X49994124Y-59640643D01*
X49994119Y-59640641D01*
X49827697Y-59585494D01*
X49827690Y-59585493D01*
X49724986Y-59575000D01*
X49250000Y-59575000D01*
X49250000Y-60653590D01*
X49164044Y-60603963D01*
X49055952Y-60575000D01*
X48944048Y-60575000D01*
X48835956Y-60603963D01*
X48750000Y-60653590D01*
X48750000Y-59575000D01*
X48624500Y-59575000D01*
X48557461Y-59555315D01*
X48511706Y-59502511D01*
X48500500Y-59451000D01*
X48500500Y-56704153D01*
X48520185Y-56637114D01*
X48572989Y-56591359D01*
X48642147Y-56581415D01*
X48705703Y-56610440D01*
X48730040Y-56639059D01*
X48732682Y-56643342D01*
X48732683Y-56643344D01*
X48856654Y-56767315D01*
X49005875Y-56859356D01*
X49005880Y-56859358D01*
X49172302Y-56914505D01*
X49172309Y-56914506D01*
X49275019Y-56924999D01*
X49749999Y-56924999D01*
X49750000Y-56924998D01*
X49750000Y-55846409D01*
X49835956Y-55896037D01*
X49944048Y-55925000D01*
X50055952Y-55925000D01*
X50164044Y-55896037D01*
X50250000Y-55846409D01*
X50250000Y-56924999D01*
X50724972Y-56924999D01*
X50724986Y-56924998D01*
X50827697Y-56914505D01*
X50994119Y-56859358D01*
X50994124Y-56859356D01*
X51143345Y-56767315D01*
X51267315Y-56643345D01*
X51359356Y-56494124D01*
X51359358Y-56494119D01*
X51414505Y-56327697D01*
X51414506Y-56327690D01*
X51424999Y-56224986D01*
X51425000Y-56224973D01*
X51425000Y-55750000D01*
X50346410Y-55750000D01*
X50396037Y-55664044D01*
X50425000Y-55555952D01*
X50425000Y-55444048D01*
X50396037Y-55335956D01*
X50346410Y-55250000D01*
X51424999Y-55250000D01*
X51424999Y-54775028D01*
X51424998Y-54775013D01*
X51414505Y-54672302D01*
X51359358Y-54505880D01*
X51359356Y-54505875D01*
X51267315Y-54356654D01*
X51143345Y-54232684D01*
X50994124Y-54140643D01*
X50994119Y-54140641D01*
X50827697Y-54085494D01*
X50827690Y-54085493D01*
X50724986Y-54075000D01*
X50250000Y-54075000D01*
X50250000Y-55153590D01*
X50164044Y-55103963D01*
X50055952Y-55075000D01*
X49944048Y-55075000D01*
X49835956Y-55103963D01*
X49750000Y-55153590D01*
X49750000Y-54075000D01*
X49275028Y-54075000D01*
X49275012Y-54075001D01*
X49172302Y-54085494D01*
X49005880Y-54140641D01*
X49005875Y-54140643D01*
X48856654Y-54232684D01*
X48732684Y-54356654D01*
X48730038Y-54360945D01*
X48678089Y-54407668D01*
X48609126Y-54418889D01*
X48545044Y-54391045D01*
X48506189Y-54332975D01*
X48500500Y-54295846D01*
X48500500Y-45275013D01*
X82075000Y-45275013D01*
X82075000Y-45750000D01*
X83153590Y-45750000D01*
X83103963Y-45835956D01*
X83075000Y-45944048D01*
X83075000Y-46055952D01*
X83103963Y-46164044D01*
X83153590Y-46250000D01*
X82075001Y-46250000D01*
X82075001Y-46724986D01*
X82085494Y-46827697D01*
X82140641Y-46994119D01*
X82140643Y-46994124D01*
X82232684Y-47143345D01*
X82356654Y-47267315D01*
X82505875Y-47359356D01*
X82505880Y-47359358D01*
X82672302Y-47414505D01*
X82672309Y-47414506D01*
X82775019Y-47424999D01*
X83249999Y-47424999D01*
X83250000Y-47424998D01*
X83250000Y-46346409D01*
X83335956Y-46396037D01*
X83444048Y-46425000D01*
X83555952Y-46425000D01*
X83664044Y-46396037D01*
X83750000Y-46346409D01*
X83750000Y-47424999D01*
X84224972Y-47424999D01*
X84224986Y-47424998D01*
X84327697Y-47414505D01*
X84494119Y-47359358D01*
X84494124Y-47359356D01*
X84643345Y-47267315D01*
X84767315Y-47143345D01*
X84859356Y-46994124D01*
X84859358Y-46994119D01*
X84914505Y-46827697D01*
X84914506Y-46827690D01*
X84924999Y-46724986D01*
X84925000Y-46724973D01*
X84925000Y-46250000D01*
X83846410Y-46250000D01*
X83896037Y-46164044D01*
X83925000Y-46055952D01*
X83925000Y-45944048D01*
X83896037Y-45835956D01*
X83846410Y-45750000D01*
X84924999Y-45750000D01*
X84924999Y-45275028D01*
X84924998Y-45275013D01*
X84914505Y-45172302D01*
X84859358Y-45005880D01*
X84859356Y-45005875D01*
X84767315Y-44856654D01*
X84643345Y-44732684D01*
X84494124Y-44640643D01*
X84494119Y-44640641D01*
X84327697Y-44585494D01*
X84327690Y-44585493D01*
X84224986Y-44575000D01*
X83750000Y-44575000D01*
X83750000Y-45653590D01*
X83664044Y-45603963D01*
X83555952Y-45575000D01*
X83444048Y-45575000D01*
X83335956Y-45603963D01*
X83250000Y-45653590D01*
X83250000Y-44575000D01*
X82775028Y-44575000D01*
X82775012Y-44575001D01*
X82672302Y-44585494D01*
X82505880Y-44640641D01*
X82505875Y-44640643D01*
X82356654Y-44732684D01*
X82232684Y-44856654D01*
X82140643Y-45005875D01*
X82140641Y-45005880D01*
X82085494Y-45172302D01*
X82085493Y-45172309D01*
X82075000Y-45275013D01*
X48500500Y-45275013D01*
X48500500Y-41705105D01*
X48520185Y-41638066D01*
X48572989Y-41592311D01*
X48642147Y-41582367D01*
X48705703Y-41611392D01*
X48730038Y-41640008D01*
X48732288Y-41643656D01*
X48856344Y-41767712D01*
X49005666Y-41859814D01*
X49172203Y-41914999D01*
X49274991Y-41925500D01*
X50725008Y-41925499D01*
X50827797Y-41914999D01*
X50994334Y-41859814D01*
X51143656Y-41767712D01*
X51267712Y-41643656D01*
X51359814Y-41494334D01*
X51414999Y-41327797D01*
X51425500Y-41225009D01*
X51425499Y-39774992D01*
X51414999Y-39672203D01*
X51359814Y-39505666D01*
X51267712Y-39356344D01*
X51143656Y-39232288D01*
X51143652Y-39232285D01*
X51059403Y-39180319D01*
X51012678Y-39128371D01*
X51000500Y-39074781D01*
X51000500Y-37604675D01*
X51000501Y-37604654D01*
X51000501Y-37401457D01*
X51000500Y-37401455D01*
X50962053Y-37208172D01*
X50962052Y-37208165D01*
X50886632Y-37026086D01*
X50886631Y-37026085D01*
X50886628Y-37026079D01*
X50777140Y-36862219D01*
X50777137Y-36862215D01*
X50250825Y-36335904D01*
X50217340Y-36274581D01*
X50222324Y-36204890D01*
X50250827Y-36160540D01*
X50267712Y-36143656D01*
X50359814Y-35994334D01*
X50414999Y-35827797D01*
X50425500Y-35725009D01*
X50425499Y-34944048D01*
X50425499Y-34274998D01*
X50425498Y-34274981D01*
X50414999Y-34172203D01*
X50414998Y-34172200D01*
X50359814Y-34005666D01*
X50267712Y-33856344D01*
X50143656Y-33732288D01*
X49994334Y-33640186D01*
X49827797Y-33585001D01*
X49827795Y-33585000D01*
X49725016Y-33574500D01*
X49725009Y-33574500D01*
X48624500Y-33574500D01*
X48557461Y-33554815D01*
X48511706Y-33502011D01*
X48500500Y-33450500D01*
X48500500Y-29497436D01*
X48500816Y-29488590D01*
X48519724Y-29224214D01*
X48522240Y-29206710D01*
X48579130Y-28945192D01*
X48584107Y-28928241D01*
X48677640Y-28677470D01*
X48684985Y-28661388D01*
X48813248Y-28426491D01*
X48822798Y-28411630D01*
X48983195Y-28197366D01*
X48994767Y-28184012D01*
X49184012Y-27994767D01*
X49197366Y-27983195D01*
X49411630Y-27822798D01*
X49426491Y-27813248D01*
X49661388Y-27684985D01*
X49677470Y-27677640D01*
X49928241Y-27584107D01*
X49945192Y-27579130D01*
X50206710Y-27522240D01*
X50224207Y-27519724D01*
X50495582Y-27500316D01*
X50504428Y-27500000D01*
X120495572Y-27500000D01*
X120504418Y-27500316D01*
G37*
%TD.AperFunction*%
%TD*%
%TA.AperFunction,Conductor*%
%TO.N,GND*%
G36*
X120504418Y-73000316D02*
G01*
X120775790Y-73019724D01*
X120793291Y-73022241D01*
X121054803Y-73079129D01*
X121071762Y-73084108D01*
X121322524Y-73177638D01*
X121338616Y-73184987D01*
X121573501Y-73313244D01*
X121588375Y-73322802D01*
X121802624Y-73483188D01*
X121815994Y-73494774D01*
X122005225Y-73684005D01*
X122016811Y-73697375D01*
X122177193Y-73911619D01*
X122186758Y-73926503D01*
X122315011Y-74161382D01*
X122322361Y-74177475D01*
X122415888Y-74428229D01*
X122420872Y-74445205D01*
X122477757Y-74706702D01*
X122480275Y-74724214D01*
X122499184Y-74988590D01*
X122499500Y-74997436D01*
X122499500Y-78950500D01*
X122479815Y-79017539D01*
X122427011Y-79063294D01*
X122375500Y-79074500D01*
X121274998Y-79074500D01*
X121274981Y-79074501D01*
X121172203Y-79085000D01*
X121172200Y-79085001D01*
X121005668Y-79140185D01*
X121005663Y-79140187D01*
X120856342Y-79232289D01*
X120732289Y-79356342D01*
X120640187Y-79505663D01*
X120640185Y-79505668D01*
X120640115Y-79505880D01*
X120585001Y-79672203D01*
X120585001Y-79672204D01*
X120585000Y-79672204D01*
X120574500Y-79774983D01*
X120574500Y-79959217D01*
X120554815Y-80026256D01*
X120538181Y-80046898D01*
X118362221Y-82222858D01*
X118362218Y-82222861D01*
X118292538Y-82292540D01*
X118222859Y-82362219D01*
X118113371Y-82526079D01*
X118113364Y-82526092D01*
X118037950Y-82708160D01*
X118037947Y-82708170D01*
X117999500Y-82901456D01*
X117999500Y-82901459D01*
X117999500Y-90098541D01*
X117999500Y-90098543D01*
X117999499Y-90098543D01*
X118037947Y-90291829D01*
X118037950Y-90291839D01*
X118113364Y-90473907D01*
X118113371Y-90473920D01*
X118222859Y-90637780D01*
X118222860Y-90637781D01*
X118222861Y-90637782D01*
X118362218Y-90777139D01*
X118362219Y-90777139D01*
X118369286Y-90784206D01*
X118369285Y-90784206D01*
X118369289Y-90784209D01*
X119038181Y-91453102D01*
X119071666Y-91514425D01*
X119074500Y-91540783D01*
X119074500Y-92225001D01*
X119074501Y-92225019D01*
X119085000Y-92327796D01*
X119085001Y-92327799D01*
X119140185Y-92494331D01*
X119140186Y-92494334D01*
X119232288Y-92643656D01*
X119356344Y-92767712D01*
X119505666Y-92859814D01*
X119672203Y-92914999D01*
X119774991Y-92925500D01*
X121225008Y-92925499D01*
X121327797Y-92914999D01*
X121494334Y-92859814D01*
X121643656Y-92767712D01*
X121767712Y-92643656D01*
X121859814Y-92494334D01*
X121914999Y-92327797D01*
X121925500Y-92225009D01*
X121925499Y-90774992D01*
X121914999Y-90672203D01*
X121859814Y-90505666D01*
X121767712Y-90356344D01*
X121643656Y-90232288D01*
X121494334Y-90140186D01*
X121327797Y-90085001D01*
X121327795Y-90085000D01*
X121225016Y-90074500D01*
X121225009Y-90074500D01*
X120540783Y-90074500D01*
X120473744Y-90054815D01*
X120453102Y-90038181D01*
X120036819Y-89621898D01*
X120003334Y-89560575D01*
X120000500Y-89534217D01*
X120000500Y-83465781D01*
X120020185Y-83398742D01*
X120036814Y-83378105D01*
X121453101Y-81961817D01*
X121514424Y-81928333D01*
X121540782Y-81925499D01*
X122375500Y-81925499D01*
X122442539Y-81945184D01*
X122488294Y-81997988D01*
X122499500Y-82049499D01*
X122499500Y-104951000D01*
X122479815Y-105018039D01*
X122427011Y-105063794D01*
X122375500Y-105075000D01*
X122250000Y-105075000D01*
X122250000Y-106153590D01*
X122164044Y-106103963D01*
X122055952Y-106075000D01*
X121944048Y-106075000D01*
X121835956Y-106103963D01*
X121750000Y-106153590D01*
X121750000Y-105075000D01*
X121275028Y-105075000D01*
X121275012Y-105075001D01*
X121172302Y-105085494D01*
X121005880Y-105140641D01*
X121005875Y-105140643D01*
X120856654Y-105232684D01*
X120732684Y-105356654D01*
X120640643Y-105505875D01*
X120640641Y-105505880D01*
X120585494Y-105672302D01*
X120585493Y-105672309D01*
X120575000Y-105775013D01*
X120575000Y-106250000D01*
X121653590Y-106250000D01*
X121603963Y-106335956D01*
X121575000Y-106444048D01*
X121575000Y-106555952D01*
X121603963Y-106664044D01*
X121653590Y-106750000D01*
X120575001Y-106750000D01*
X120575001Y-107224986D01*
X120585494Y-107327697D01*
X120640641Y-107494119D01*
X120640643Y-107494124D01*
X120732684Y-107643345D01*
X120856654Y-107767315D01*
X121005875Y-107859356D01*
X121005880Y-107859358D01*
X121172302Y-107914505D01*
X121172309Y-107914506D01*
X121275019Y-107924999D01*
X121749999Y-107924999D01*
X121750000Y-107924998D01*
X121750000Y-106846409D01*
X121835956Y-106896037D01*
X121944048Y-106925000D01*
X122055952Y-106925000D01*
X122164044Y-106896037D01*
X122250000Y-106846409D01*
X122250000Y-107924999D01*
X122375500Y-107924999D01*
X122442539Y-107944684D01*
X122488294Y-107997488D01*
X122499500Y-108048999D01*
X122499500Y-112002562D01*
X122499184Y-112011408D01*
X122480275Y-112275785D01*
X122477757Y-112293297D01*
X122420872Y-112554794D01*
X122415888Y-112571770D01*
X122322361Y-112822524D01*
X122315011Y-112838617D01*
X122186758Y-113073496D01*
X122177193Y-113088380D01*
X122016811Y-113302624D01*
X122005225Y-113315994D01*
X121815994Y-113505225D01*
X121802624Y-113516811D01*
X121588380Y-113677193D01*
X121573496Y-113686758D01*
X121338617Y-113815011D01*
X121322524Y-113822361D01*
X121071770Y-113915888D01*
X121054794Y-113920872D01*
X120793297Y-113977757D01*
X120775785Y-113980275D01*
X120504418Y-113999684D01*
X120495572Y-114000000D01*
X50504428Y-114000000D01*
X50495582Y-113999684D01*
X50224214Y-113980275D01*
X50206702Y-113977757D01*
X49945205Y-113920872D01*
X49928229Y-113915888D01*
X49677475Y-113822361D01*
X49661382Y-113815011D01*
X49426503Y-113686758D01*
X49411619Y-113677193D01*
X49197375Y-113516811D01*
X49184005Y-113505225D01*
X48994774Y-113315994D01*
X48983188Y-113302624D01*
X48822802Y-113088375D01*
X48813244Y-113073501D01*
X48684987Y-112838616D01*
X48677638Y-112822524D01*
X48584108Y-112571762D01*
X48579129Y-112554803D01*
X48522241Y-112293291D01*
X48519724Y-112275785D01*
X48500816Y-112011408D01*
X48500500Y-112002562D01*
X48500500Y-108049499D01*
X48520185Y-107982460D01*
X48572989Y-107936705D01*
X48624500Y-107925499D01*
X49725002Y-107925499D01*
X49725008Y-107925499D01*
X49827797Y-107914999D01*
X49994334Y-107859814D01*
X50143656Y-107767712D01*
X50267712Y-107643656D01*
X50319680Y-107559402D01*
X50371627Y-107512679D01*
X50425218Y-107500500D01*
X81598542Y-107500500D01*
X81630619Y-107494119D01*
X81695188Y-107481275D01*
X81791836Y-107462051D01*
X81845165Y-107439961D01*
X81973914Y-107386632D01*
X82137782Y-107277139D01*
X82277139Y-107137782D01*
X82277140Y-107137779D01*
X82284206Y-107130714D01*
X82284208Y-107130710D01*
X86878101Y-102536819D01*
X86939424Y-102503334D01*
X86965782Y-102500500D01*
X87098543Y-102500500D01*
X87228582Y-102474632D01*
X87291835Y-102462051D01*
X87357291Y-102434937D01*
X87404744Y-102425499D01*
X87725002Y-102425499D01*
X87725008Y-102425499D01*
X87827797Y-102414999D01*
X87994334Y-102359814D01*
X88143656Y-102267712D01*
X88267712Y-102143656D01*
X88359814Y-101994334D01*
X88414999Y-101827797D01*
X88425500Y-101725009D01*
X88425499Y-100274992D01*
X88414999Y-100172203D01*
X88359814Y-100005666D01*
X88267712Y-99856344D01*
X88143656Y-99732288D01*
X87994334Y-99640186D01*
X87827797Y-99585001D01*
X87827795Y-99585000D01*
X87725010Y-99574500D01*
X86274998Y-99574500D01*
X86274981Y-99574501D01*
X86172203Y-99585000D01*
X86172200Y-99585001D01*
X86005668Y-99640185D01*
X86005663Y-99640187D01*
X85856342Y-99732289D01*
X85732289Y-99856342D01*
X85640187Y-100005663D01*
X85640186Y-100005666D01*
X85585001Y-100172203D01*
X85585001Y-100172204D01*
X85585000Y-100172204D01*
X85574500Y-100274983D01*
X85574500Y-100959217D01*
X85554815Y-101026256D01*
X85538181Y-101046898D01*
X81121899Y-105463181D01*
X81060576Y-105496666D01*
X81034218Y-105499500D01*
X50425218Y-105499500D01*
X50358179Y-105479815D01*
X50319679Y-105440597D01*
X50267712Y-105356344D01*
X50143656Y-105232288D01*
X49994334Y-105140186D01*
X49827797Y-105085001D01*
X49827795Y-105085000D01*
X49725016Y-105074500D01*
X49725009Y-105074500D01*
X48624500Y-105074500D01*
X48557461Y-105054815D01*
X48511706Y-105002011D01*
X48500500Y-104950500D01*
X48500500Y-97434108D01*
X73999500Y-97434108D01*
X73999500Y-101565891D01*
X74033608Y-101693187D01*
X74051981Y-101725009D01*
X74099500Y-101807314D01*
X74192686Y-101900500D01*
X74306814Y-101966392D01*
X74434108Y-102000500D01*
X74434110Y-102000500D01*
X78565890Y-102000500D01*
X78565892Y-102000500D01*
X78693186Y-101966392D01*
X78807314Y-101900500D01*
X78900500Y-101807314D01*
X78966392Y-101693186D01*
X79000500Y-101565892D01*
X79000500Y-97434108D01*
X78966392Y-97306814D01*
X78900500Y-97192686D01*
X78807314Y-97099500D01*
X78750250Y-97066554D01*
X78693187Y-97033608D01*
X78629539Y-97016554D01*
X78565892Y-96999500D01*
X74565892Y-96999500D01*
X74434108Y-96999500D01*
X74306812Y-97033608D01*
X74192686Y-97099500D01*
X74192683Y-97099502D01*
X74099502Y-97192683D01*
X74099500Y-97192686D01*
X74033608Y-97306812D01*
X73999500Y-97434108D01*
X48500500Y-97434108D01*
X48500500Y-94775013D01*
X119075000Y-94775013D01*
X119075000Y-95250000D01*
X120153590Y-95250000D01*
X120103963Y-95335956D01*
X120075000Y-95444048D01*
X120075000Y-95555952D01*
X120103963Y-95664044D01*
X120153590Y-95750000D01*
X119075001Y-95750000D01*
X119075001Y-96224986D01*
X119085494Y-96327697D01*
X119140641Y-96494119D01*
X119140643Y-96494124D01*
X119232684Y-96643345D01*
X119356654Y-96767315D01*
X119505875Y-96859356D01*
X119505880Y-96859358D01*
X119672302Y-96914505D01*
X119672309Y-96914506D01*
X119775019Y-96924999D01*
X120249999Y-96924999D01*
X120250000Y-96924998D01*
X120250000Y-95846409D01*
X120335956Y-95896037D01*
X120444048Y-95925000D01*
X120555952Y-95925000D01*
X120664044Y-95896037D01*
X120750000Y-95846409D01*
X120750000Y-96924999D01*
X121224972Y-96924999D01*
X121224986Y-96924998D01*
X121327697Y-96914505D01*
X121494119Y-96859358D01*
X121494124Y-96859356D01*
X121643345Y-96767315D01*
X121767315Y-96643345D01*
X121859356Y-96494124D01*
X121859358Y-96494119D01*
X121914505Y-96327697D01*
X121914506Y-96327690D01*
X121924999Y-96224986D01*
X121925000Y-96224973D01*
X121925000Y-95750000D01*
X120846410Y-95750000D01*
X120896037Y-95664044D01*
X120925000Y-95555952D01*
X120925000Y-95444048D01*
X120896037Y-95335956D01*
X120846410Y-95250000D01*
X121924999Y-95250000D01*
X121924999Y-94775028D01*
X121924998Y-94775013D01*
X121914505Y-94672302D01*
X121859358Y-94505880D01*
X121859356Y-94505875D01*
X121767315Y-94356654D01*
X121643345Y-94232684D01*
X121494124Y-94140643D01*
X121494119Y-94140641D01*
X121327697Y-94085494D01*
X121327690Y-94085493D01*
X121224986Y-94075000D01*
X120750000Y-94075000D01*
X120750000Y-95153590D01*
X120664044Y-95103963D01*
X120555952Y-95075000D01*
X120444048Y-95075000D01*
X120335956Y-95103963D01*
X120250000Y-95153590D01*
X120250000Y-94075000D01*
X119775028Y-94075000D01*
X119775012Y-94075001D01*
X119672302Y-94085494D01*
X119505880Y-94140641D01*
X119505875Y-94140643D01*
X119356654Y-94232684D01*
X119232684Y-94356654D01*
X119140643Y-94505875D01*
X119140641Y-94505880D01*
X119085494Y-94672302D01*
X119085493Y-94672309D01*
X119075000Y-94775013D01*
X48500500Y-94775013D01*
X48500500Y-85275013D01*
X85575000Y-85275013D01*
X85575000Y-85750000D01*
X86653590Y-85750000D01*
X86603963Y-85835956D01*
X86575000Y-85944048D01*
X86575000Y-86055952D01*
X86603963Y-86164044D01*
X86653590Y-86250000D01*
X85575001Y-86250000D01*
X85575001Y-86724986D01*
X85585494Y-86827697D01*
X85640641Y-86994119D01*
X85640643Y-86994124D01*
X85732684Y-87143345D01*
X85856654Y-87267315D01*
X86005875Y-87359356D01*
X86005880Y-87359358D01*
X86172302Y-87414505D01*
X86172309Y-87414506D01*
X86275019Y-87424999D01*
X86749999Y-87424999D01*
X86750000Y-87424998D01*
X86750000Y-86346409D01*
X86835956Y-86396037D01*
X86944048Y-86425000D01*
X87055952Y-86425000D01*
X87164044Y-86396037D01*
X87250000Y-86346409D01*
X87250000Y-87424999D01*
X87724972Y-87424999D01*
X87724986Y-87424998D01*
X87827697Y-87414505D01*
X87994119Y-87359358D01*
X87994124Y-87359356D01*
X88143345Y-87267315D01*
X88267315Y-87143345D01*
X88359356Y-86994124D01*
X88359358Y-86994119D01*
X88414505Y-86827697D01*
X88414506Y-86827690D01*
X88424999Y-86724986D01*
X88425000Y-86724973D01*
X88425000Y-86250000D01*
X87346410Y-86250000D01*
X87396037Y-86164044D01*
X87425000Y-86055952D01*
X87425000Y-85944048D01*
X87396037Y-85835956D01*
X87346410Y-85750000D01*
X88424999Y-85750000D01*
X88424999Y-85275028D01*
X88424998Y-85275013D01*
X88414505Y-85172302D01*
X88359358Y-85005880D01*
X88359356Y-85005875D01*
X88267315Y-84856654D01*
X88143345Y-84732684D01*
X87994124Y-84640643D01*
X87994119Y-84640641D01*
X87827697Y-84585494D01*
X87827690Y-84585493D01*
X87724986Y-84575000D01*
X87250000Y-84575000D01*
X87250000Y-85653590D01*
X87164044Y-85603963D01*
X87055952Y-85575000D01*
X86944048Y-85575000D01*
X86835956Y-85603963D01*
X86750000Y-85653590D01*
X86750000Y-84575000D01*
X86275028Y-84575000D01*
X86275012Y-84575001D01*
X86172302Y-84585494D01*
X86005880Y-84640641D01*
X86005875Y-84640643D01*
X85856654Y-84732684D01*
X85732684Y-84856654D01*
X85640643Y-85005875D01*
X85640641Y-85005880D01*
X85585494Y-85172302D01*
X85585493Y-85172309D01*
X85575000Y-85275013D01*
X48500500Y-85275013D01*
X48500500Y-82048999D01*
X48520185Y-81981960D01*
X48572989Y-81936205D01*
X48624500Y-81924999D01*
X48750000Y-81924999D01*
X48750000Y-80846409D01*
X48835956Y-80896037D01*
X48944048Y-80925000D01*
X49055952Y-80925000D01*
X49164044Y-80896037D01*
X49250000Y-80846409D01*
X49250000Y-81924999D01*
X49724972Y-81924999D01*
X49724986Y-81924998D01*
X49827697Y-81914505D01*
X49994119Y-81859358D01*
X49994124Y-81859356D01*
X50143345Y-81767315D01*
X50267315Y-81643345D01*
X50359356Y-81494124D01*
X50359358Y-81494119D01*
X50414505Y-81327697D01*
X50414506Y-81327690D01*
X50424999Y-81224986D01*
X50425000Y-81224973D01*
X50425000Y-80750000D01*
X49346410Y-80750000D01*
X49396037Y-80664044D01*
X49425000Y-80555952D01*
X49425000Y-80444048D01*
X49396037Y-80335956D01*
X49346410Y-80250000D01*
X50424999Y-80250000D01*
X50424999Y-79775028D01*
X50424998Y-79775013D01*
X50414505Y-79672302D01*
X50359358Y-79505880D01*
X50359356Y-79505875D01*
X50267315Y-79356654D01*
X50143345Y-79232684D01*
X49994124Y-79140643D01*
X49994119Y-79140641D01*
X49827697Y-79085494D01*
X49827690Y-79085493D01*
X49724986Y-79075000D01*
X49250000Y-79075000D01*
X49250000Y-80153590D01*
X49164044Y-80103963D01*
X49055952Y-80075000D01*
X48944048Y-80075000D01*
X48835956Y-80103963D01*
X48750000Y-80153590D01*
X48750000Y-79075000D01*
X48624500Y-79075000D01*
X48557461Y-79055315D01*
X48511706Y-79002511D01*
X48500500Y-78951000D01*
X48500500Y-74997436D01*
X48500816Y-74988590D01*
X48519724Y-74724214D01*
X48522240Y-74706710D01*
X48579130Y-74445192D01*
X48584107Y-74428241D01*
X48677640Y-74177470D01*
X48684985Y-74161388D01*
X48813248Y-73926491D01*
X48822798Y-73911630D01*
X48983195Y-73697366D01*
X48994767Y-73684012D01*
X49184012Y-73494767D01*
X49197366Y-73483195D01*
X49411630Y-73322798D01*
X49426491Y-73313248D01*
X49661388Y-73184985D01*
X49677470Y-73177640D01*
X49928241Y-73084107D01*
X49945192Y-73079130D01*
X50206710Y-73022240D01*
X50224207Y-73019724D01*
X50495582Y-73000316D01*
X50504428Y-73000000D01*
X120495572Y-73000000D01*
X120504418Y-73000316D01*
G37*
%TD.AperFunction*%
%TD*%
M02*
