M48
; DRILL file {KiCad 9.0.0} date 2025-03-21T12:09:43+0100
; FORMAT={-:-/ absolute / metric / decimal}
; #@! TF.CreationDate,2025-03-21T12:09:43+01:00
; #@! TF.GenerationSoftware,Kicad,Pcbnew,9.0.0
; #@! TF.FileFunction,Plated,1,2,PTH
FMAT,2
METRIC
; #@! TA.AperFunction,Plated,PTH,ViaDrill
T1C0.300
; #@! TA.AperFunction,Plated,PTH,ComponentDrill
T2C0.850
%
G90
G05
T1
X153.0Y-53.0
T2
X29.5Y-27.5
X29.5Y-68.5
X31.5Y-35.0
X31.5Y-61.0
X39.5Y-35.0
X39.5Y-61.0
X44.5Y-27.5
X44.5Y-68.5
X49.0Y-35.0
X49.0Y-61.0
X49.0Y-80.5
X49.0Y-106.5
X50.0Y-40.5
X50.0Y-55.5
X55.5Y-126.5
X55.5Y-141.5
X83.5Y-46.0
X83.5Y-50.0
X87.0Y-86.0
X87.0Y-101.0
X120.5Y-91.5
X120.5Y-95.5
X122.0Y-35.0
X122.0Y-61.0
X122.0Y-80.5
X122.0Y-106.5
X125.5Y-34.0
X125.5Y-43.0
X129.0Y-121.0
X129.0Y-147.0
X131.0Y-27.5
X131.0Y-68.5
X131.0Y-73.0
X136.5Y-146.5
X141.5Y-35.0
X141.5Y-61.0
X149.5Y-35.0
X149.5Y-61.0
X151.5Y-146.5
X157.0Y-27.5
X157.0Y-68.5
X157.0Y-73.0
X162.5Y-53.0
X162.5Y-62.0
M30
